<svg width="78" height="35" viewBox="0 0 78 35" fill="none" xmlns="http://www.w3.org/2000/svg">
  <path d="M8.414 0h-.911V6.94c.771 0 1.823 0 3.015.28 1.122.211 3.436.632 5.54 2.315 2.173 1.753 3.785 4.627 3.855 7.923 0 3.646-1.963 6.801-4.347 8.554-2.734 1.893-5.96 1.963-6.73 1.963H7.712v7.082h1.192c9.326 0 18.23-6.871 18.37-17.319C27.346 7.783 19.774-.14 8.416 0z" fill="#9DD6D0"/>
  <path d="M7.012 0H0v7.012h7.012V0z" fill="#03BEA5"/>
  <path d="M7.152 13.883H.07v21.175h7.082V13.883z" fill="#03BEA5"/>
  <path d="M36.32 7.572h-2.103v7.292h2.103V7.572z" fill="#03BEA5"/>
  <path d="M39.826 14.863h-2.103V7.57h2.103v.841c.07-.07.912-1.192 2.314-1.122.911.07 1.753.561 2.244 1.403.07.21.14.35.14.56v5.61H42.49V9.885c0-.491-.28-.912-.772-1.052-.14-.07-.35-.07-.56-.07-.562.07-1.052.42-1.263.911-.07 1.823-.07 3.506-.07 5.189z" fill="#03BEA5"/>
  <path d="M36.32 5.12h-2.103v1.542h2.103V5.119z" fill="#03BEA5"/>
  <path d="M46.137 20.545h-2.104v7.292h2.104v-7.292z" fill="#03BEA5"/>
  <path d="M46.137 18.09h-2.104v1.542h2.104V18.09z" fill="#03BEA5"/>
  <path d="M58.057 20.545h-2.104v7.292h2.104v-7.292z" fill="#03BEA5"/>
  <path d="M73.903 17.95H71.8v9.956h2.103v-9.957z" fill="#03BEA5"/>
  <path d="M62.058 26.18a.336.336 0 00.135.183l.21.07h.772v1.402h-1.823c-.14 0-.561-.07-.842-.42-.56-.491-.56-1.122-.56-1.262v-4.137h-1.053v-1.473h.982V18.58h2.104v1.963h.981v1.473h-.981l.03 3.895.045.27z" fill="#03BEA5"/>
  <path d="M58.057 18.09h-2.104v1.542h2.104V18.09z" fill="#03BEA5"/>
  <path d="M64.017 7.572h-2.104v7.292h2.104V7.572z" fill="#03BEA5"/>
  <path d="M67.803 14.863h-2.104V7.571h2.104v.911c.07-.14.28-.7.911-1.051.631-.35 1.262-.28 1.473-.28v1.963c-.21-.07-.842-.14-1.473.14-.42.21-.771.49-.911.7v4.91z" fill="#03BEA5"/>
  <path d="M64.017 5.12h-2.104v1.542h2.104V5.119z" fill="#03BEA5"/>
  <path d="M52.096 9.674h-1.752c-.21-.7-.632-.911-1.403-.981-.63 0-1.122.28-1.122.7 0 .492.421.702 1.122.772 2.034 0 3.436.982 3.436 2.454 0 1.473-1.052 2.454-3.296 2.454-2.103 0-3.365-.981-3.365-2.664h1.893c.07.07.14 1.192 1.402 1.192.631 0 1.403-.07 1.332-.701 0-.491-.56-.701-1.332-.842-1.753-.14-3.085-1.051-3.085-2.313 0-2.034 1.543-2.595 2.945-2.665 1.472.07 3.225.49 3.225 2.594z" fill="#03BEA5"/>
  <path d="M60.932 11.077c0 2.174-1.403 3.926-3.156 3.926-1.753 0-3.155-1.752-3.155-3.926 0-2.174 1.402-3.927 3.155-3.927s3.156 1.683 3.156 3.927zm-3.647-2.454c-.911 0-1.682 1.052-1.682 2.384 0 1.332.771 2.384 1.682 2.384.912 0 1.683-1.052 1.683-2.384 0-1.332-.771-2.384-1.683-2.384z" fill="#03BEA5"/>
  <path d="M55.602 7.502h-1.963v10.167h1.963V7.502z" fill="#03BEA5"/>
  <path d="M73.833 8.623c.911 0 1.682.771 1.682 1.683H72.15c.07-.912.771-1.683 1.683-1.683zm-1.683 2.945h5.329c.21-2.454-1.122-4.418-3.716-4.418-2.314 0-3.577 1.964-3.577 3.997 0 1.963 1.122 3.926 3.576 3.926 2.034 0 3.226-1.261 3.506-2.454h-1.963c0 .07-.35.912-1.472.912-.772-.07-1.613-.841-1.683-1.963z" fill="#03BEA5"/>
  <path d="M39.265 18.16h.14c.49.07 1.192.28 1.823.771 1.613 1.262 1.472 3.436 1.472 3.927 0 3.295-1.682 4.838-3.295 4.978h-4.978V18.16h4.838zm-.701 8.274c.14-.012.342-.044.56-.14 1.453-.64 1.473-3.145 1.473-3.576 0-2.174-.912-2.735-1.402-2.945-.21-.07-.491-.14-.702-.14H36.46v6.8h2.104z" fill="#03BEA5"/>
  <path d="M53.359 24.12c0 2.104-1.403 3.787-3.085 3.787-1.683 0-3.086-1.683-3.086-3.787 0-2.103 1.403-3.786 3.086-3.786 1.682 0 3.085 1.683 3.085 3.786zm-2.665-2.454c-.911 0-1.612 1.052-1.612 2.384 0 1.332.77 2.384 1.612 2.384.842 0 1.613-1.052 1.613-2.384 0-1.332-.701-2.384-1.613-2.384z" fill="#03BEA5"/>
  <path d="M53.99 28.959c-.453 1.247-1.938 1.963-3.226 1.963-1.472 0-2.805-.841-3.366-2.244h2.034c.49.702 1.402.912 2.033.631.21-.07.35-.21.42-.28.281-.28.422-.701.422-1.122v-7.362h1.823v7.502c.007.23-.012.556-.14.912z" fill="#03BEA5"/>
  <path d="M66.33 20.333c.21-.07 1.753-.42 2.945.631.631.631.841 1.402.912 1.683v4.347c0 .07 0 .28.14.49.14.211.28.351.35.351H68.714c-.28-.07-.42-.49-.35-.911-.07.07-.842 1.262-2.244 1.192-1.122-.07-2.104-.982-2.244-2.034-.07-.77.28-1.542.842-2.033 1.262-1.052 3.155-.21 3.575-1.122.14-.21.07-.56 0-.771-.42-.42-1.051-.42-1.402-.42-.771.14-1.122.91-1.122.98h-1.893c0-.07.631-1.892 2.454-2.383zm1.823 3.856c-.14.07-.42.28-.771.35-.842.281-1.192.211-1.543.492-.21.28-.35.63-.21.981.14.421.631.561.631.561.561.14 1.332-.21 1.823-.981.07-.421.07-.912.07-1.403z" fill="#03BEA5"/>
</svg>
