<svg width="130" height="18" viewBox="0 0 130 18" fill="none" xmlns="http://www.w3.org/2000/svg">
  <path fill-rule="evenodd" clip-rule="evenodd" d="M113.483 6.495v-.278c0-.093 0-.186-.093-.278-.092-.093-.185-.093-.278-.093h-1.763c-.186 0-.278.093-.371.278l-.093.279-1.856 10.392c0 .093 0 .186.093.278.093.093.186.093.278.093H111.071c.185 0 .278-.093.371-.278l1.299-6.403c.464-1.67 1.485-2.134 2.505-2.227h.279c-.65 3.898-1.392 8.537-1.485 8.63 0 .093 0 .185.093.278.093.093.185.093.278.093h1.949c.185 0 .278-.093.278-.278.093-.186.557-2.877.835-4.454.743 1.113 2.97 4.546 2.97 4.546.092.093.185.186.278.186h4.547c.185 0 .278-.093.371-.278 0 0 1.392-8.073 1.484-8.63h2.227c.186 0 .279-.093.372-.278L130 6.31v-.093c0-.093 0-.186-.093-.186-.093-.092-.185-.092-.278-.092h-2.134c.092-.65.464-2.877.464-2.877V2.97c0-.092 0-.185-.093-.185-.093-.093-.186-.093-.279-.093h-1.948c-.186 0-.279.093-.371.278 0 0-.464 2.506-.464 2.97h-.928c-.093 0-.186.092-.279.185-.092-.093-.185-.185-.278-.185h-2.32c-.093 0-.185 0-.278.092 0 0-1.763 2.042-2.691 3.063.278-1.578 1.021-6.032 1.021-6.032V2.97c0-.092 0-.185-.093-.185-.093-.093-.186-.093-.278-.093h-1.949c-.186 0-.278.093-.371.278 0 .279-.279 1.392-.464 2.97-.093-.093-.186-.093-.279-.093-.742-.093-1.484.185-2.134.65zm9.558 9.65c-.743-1.298-3.062-4.917-3.248-5.288.278-.279 3.062-3.712 3.619-4.362l-.279 1.3c0 .092 0 .185.093.278.093.093.186.093.279.093h.835c-.093.65-1.021 6.217-1.299 7.98zm-65.51-4.36c-.372 1.391-1.67 2.69-2.97 3.062-1.02.092-1.67 0-2.227-.279-.557-.371-.835-1.02-1.02-1.577 0-.186-.093-.371-.093-.65 0-1.299.65-2.505 1.948-3.433.742-.464 1.67-.65 2.506-.464a2.396 2.396 0 011.577 1.113c.185.372.371.928.371 1.392 0 .279 0 .557-.093.835zm-9.744-9.001l-.37 2.227c0 .092 0 .185.092.278.093.093.185.093.278.093h1.949c.186 0 .278-.093.371-.278l.371-2.227c0-.093 0-.186-.093-.279-.092-.093-.185-.093-.278-.093h-1.949c-.185 0-.278.186-.37.279zm-4.268 9c.093-.278.093-.556.093-.835 0-.464-.093-1.02-.372-1.392-.37-.742-1.113-1.02-1.577-1.113-.835-.186-1.856 0-2.505.464-1.206.928-1.949 2.134-1.949 3.433 0 .186 0 .371.093.65.185.556.464 1.206 1.02 1.577.465.371 1.207.464 2.228.279 1.206-.372 2.505-1.67 2.969-3.063zm-16.331-1.67c.835 0 4.732 0 5.289-.093 0-.37-.279-.742-.65-1.113-.464-.371-1.113-.557-1.948-.557-1.021.186-2.227.835-2.691 1.763zm80.078 1.67c-.371 1.392-1.67 2.691-2.969 3.063-1.021.092-1.67 0-2.227-.279-.557-.371-.835-1.02-1.021-1.577 0-.186-.093-.371-.093-.65 0-1.299.65-2.505 1.949-3.433.742-.464 1.67-.65 2.505-.464a2.397 2.397 0 011.578 1.113c.185.372.371.928.371 1.392 0 .279 0 .557-.093.835zM0 16.981v-.186-.093L14.197.372c.093-.094.093-.094.186-.094h2.32c.092 0 .185 0 .185.093 0 0 .093.093.093.186V.65s-1.763 8.815-2.135 10.392C15.96 9.743 24.218.464 24.218.464c.093-.278.186-.278.279-.278h2.134c.093 0 .186 0 .186.092.092.093.092.186 0 .186L24.59 9.65s0-.093.092-.093c1.114-2.134 3.155-3.526 5.382-3.804 2.042-.093 3.526.65 4.454 2.227.371.65.557 1.577.65 2.505a6.916 6.916 0 011.948-2.969c1.578-1.485 3.526-2.041 5.475-1.67h.093l.185.093c.464.185.928.37 1.3.742.185-1.02.835-3.897.835-3.897 0-.186.185-.279.37-.279h1.764c.093 0 .185 0 .278.093.093.093.093.186.093.279L44.91 16.795c0 .186-.186.278-.371.278h-1.763c-.093 0-.186 0-.279-.092-.093-.093-.093-.186-.093-.186v-.093s0-.278.093-.37c-1.392.927-2.876 1.206-4.268 1.02-1.578-.279-2.97-1.856-3.248-3.433-.093-.464-.093-.835-.093-1.3-.092.093-.185.093-.185.093h-8.166v.093c0 .093 0 .279.093.464v.093a2.36 2.36 0 002.413 1.485c1.02 0 2.04-.557 2.876-1.485.093-.093.186-.093.278-.093h1.856c.093 0 .186.093.279.186.092.092.092.185 0 .37-1.021 2.135-3.34 3.62-5.753 3.62-1.67-.093-3.155-.928-3.898-2.227-.37-.743-.556-1.67-.556-2.598l-1.3 4.268c0 .093-.092.185-.278.185h-2.32c-.092 0-.185 0-.185-.092 0-.093-.093-.093-.093-.186v-.093c.928-3.711 2.134-9.093 2.598-11.135-1.02 1.3-9.65 11.414-9.65 11.414-.093.092-.093.092-.186.092h-1.948c-.093 0-.186 0-.186-.092 0 0-.093-.093-.093-.186v-.093c.835-3.804 1.949-9.186 2.413-11.32-1.02 1.299-9.65 11.506-9.65 11.506-.093.093-.093.093-.186.093H.186c-.093.092-.186.092-.186 0zM110.421 5.939c-.093-.093-.185-.093-.278-.093h-1.763c-.186 0-.279.093-.371.278l-.093.65c-.371-.371-.743-.557-1.392-.835l-.186-.093h-.092c-1.949-.464-3.898.185-5.475 1.67a6.52 6.52 0 00-1.763 2.505l2.32-9.464c0-.093 0-.186-.093-.186.093-.093 0-.185-.093-.185h-2.134c-.093 0-.186 0-.186.092 0 0-8.258 9.372-9.372 10.579C89.822 9.279 91.585.463 91.585.463V.371c0-.093 0-.093-.093-.185-.093-.093-.093-.093-.186-.093h-2.412c-.093 0-.186 0-.186.093L76.924 14.01c-.186-2.041-1.114-4.175-1.114-4.175-1.577-3.248-5.103-4.361-7.145-2.413l-.464.186c1.485-2.32 5.197-2.227 7.516.557 0 0 1.021 1.299 1.856 3.154.186-.65.279-1.391.371-2.04-1.206-1.671-2.598-2.692-2.598-2.692-2.97-2.041-6.588-1.206-7.423 1.485l-.186.371c.093-2.784 3.34-4.547 6.774-3.34 0 0 1.578.556 3.248 1.948 0-.093 0-.185-.093-.278a12.112 12.112 0 00-.742-1.949c-1.856-.928-3.62-1.113-3.62-1.113-3.618-.279-6.309 2.32-5.66 5.01v.372c-1.299-2.413.65-5.568 4.176-6.31 0 0 1.67-.279 3.712 0-.557-.557-1.114-1.021-1.763-1.392-2.042.278-3.526.928-3.526.928-3.248 1.577-4.361 5.103-2.413 7.145l.186.278c-2.32-1.485-2.227-5.196.556-7.516 0 0 1.3-1.114 3.155-1.856C70.985.093 70.15 0 69.315 0c-1.578 1.3-2.506 2.598-2.506 2.598-2.041 3.062-1.206 6.588 1.485 7.423l.371.186c-2.784-.093-4.547-3.34-3.34-6.774 0 0 .556-1.484 1.763-3.062-.65.186-1.3.464-1.949.742-.742 1.856-.928 3.434-.928 3.434-.278 3.619 2.32 6.31 5.011 5.753h.371c-2.412 1.299-5.567-.65-6.31-4.176 0 0-.278-1.577 0-3.619-.556.557-1.113 1.207-1.484 1.856.278 1.949.928 3.433.928 3.433 1.577 3.248 5.103 4.362 7.145 2.413l.278-.186c-1.485 2.32-5.196 2.227-7.516-.556 0 0-1.206-1.485-1.856-3.34 0-.094 0-.186-.093-.186-.093-.093-.185-.093-.278-.093h-1.763c-.186 0-.279.093-.371.278 0 0-.093.186-.186.65-.371-.371-.835-.557-1.299-.743l-.186-.092h-.092c-1.949-.464-3.898.185-5.475 1.67a6.915 6.915 0 00-1.949 2.97v.092l.743-4.361c0-.093 0-.186-.093-.279-.093-.092-.186-.092-.278-.092h-1.856c-.186 0-.279.092-.371.278l-1.95 10.67c0 .094 0 .186.094.28.093.092.185.092.278.092h1.949c.185 0 .278-.093.37-.278l.743-4.361c0 .464 0 .835.093 1.299.278 1.67 1.763 3.154 3.248 3.433 1.392.278 2.783-.093 4.268-1.02 0 .185-.093.37-.093.37v.093c0 .093 0 .186.093.186.093.092.186.092.278.092h1.764c.185 0 .278-.092.37-.278l1.578-8.351c1.114 1.392 2.691 2.505 2.691 2.505 2.97 2.042 6.588 1.207 7.423-1.484l.186-.371c-.093 2.783-3.34 4.546-6.774 3.34 0 0-1.485-.557-3.062-1.763v.186c.186.742.464 1.391.835 2.04 1.856.743 3.34.929 3.34.929 3.62.278 6.31-2.32 5.66-5.01v-.372c1.3 2.412-.649 5.567-4.175 6.31 0 0-1.577.278-3.526 0 .464.464 1.02.928 1.578 1.299 2.041-.279 3.526-.928 3.526-.928 3.247-1.578 4.36-5.104 2.412-7.145l-.185-.278c2.32 1.484 2.227 5.196-.557 7.516 0 0-1.3 1.113-3.248 1.855.557.186 1.114.279 1.67.372h.836c1.67-1.207 2.598-2.598 2.598-2.598 2.041-2.97 1.206-6.589-1.485-7.424l-.371-.185c2.784.092 4.547 3.34 3.34 6.773 0 0-.556 1.578-1.855 3.248.092 0 .185 0 .278-.093.65-.185 1.299-.37 1.856-.742.835-1.856.928-3.526.928-3.526.278-3.619-2.32-6.31-5.011-5.66h-.371c2.412-1.3 5.567.65 6.31 4.268 0 0 .37 1.67.092 3.619-.092.278-.185.65-.37 1.113-.094.093-.186.279-.28.464 0 .093-.092.186 0 .279 0 .092.094.185.28.185h2.876c.093 0 .185 0 .185-.093 0 0 8.537-10.206 9.65-11.506-.37 2.135-1.577 7.517-2.412 11.32v.094c0 .092 0 .092.093.185s.093.093.185.093h1.949c.093 0 .186 0 .186-.093 0 0 8.63-10.114 9.743-11.413-.464 2.134-1.763 7.423-2.598 11.135v.093c0 .092 0 .092.092.185.093.093.093.093.186.093h2.32c.092 0 .185-.093.278-.186l1.02-4.082.094-.557v.278c0 .464 0 .835.092 1.3.279 1.67 1.763 3.154 3.248 3.433 1.392.278 2.784-.093 4.268-1.021 0 .186-.092.371-.092.371v.093c0 .093 0 .185.092.185.093.093.186.093.279.093h1.763c.185 0 .278-.093.371-.278l1.577-8.444.371-2.32c-.185 0-.185-.093-.278-.185z" fill="#DB242E"/>
</svg>
