<svg width="130" height="30" viewBox="0 0 130 30" fill="none" xmlns="http://www.w3.org/2000/svg">
  <path d="M38.854 18.422v.107c0 .584.217.743 1.3.85v.265c-.758-.106-1.137-.106-1.517-.106-.379 0-.758 0-1.517.106v-.266c1.084-.106 1.192-.212 1.3-.956l.38-7.645v-.16c0-.637-.271-.743-1.3-.85V9.45c.541.053.758.106 1.137.106.488 0 .813 0 1.3-.106l2.819 8.07 2.98-8.07c.705.053.976.106 1.355.106.27 0 .596 0 1.084-.106v.319c-1.03.106-1.3.265-1.3.85v.105l.162 7.646c0 .744.217.903 1.3.956v.319c-.867-.106-1.3-.106-1.788-.106s-.921.053-1.788.106v-.319c.975-.053 1.3-.265 1.3-.85v-.106l-.108-8.07-3.251 9.026h-.217L39.288 10.3l-.434 8.123z" fill="#020D1C"/>
  <path d="M55.165 17.257c-.163 1.592-1.138 2.495-2.601 2.495-2.005 0-3.035-1.274-3.035-3.663 0-2.337 1.138-3.823 2.926-3.823 1.789 0 2.71 1.22 2.71 3.504h-4.66c0 2.39.704 3.504 2.113 3.504 1.138 0 1.788-.69 2.005-2.017h.542zm-.975-2.018c-.109-1.7-.65-2.602-1.789-2.602-1.03 0-1.734.956-1.896 2.602h3.685z" fill="#020D1C"/>
  <path d="M56.357 12.58a7.994 7.994 0 001.842-.371l.109.85.054.584c.27-.85.975-1.434 1.788-1.434.759 0 1.3.478 1.3 1.115 0 .425-.27.743-.595.743-.325 0-.596-.212-.596-.478 0-.106 0-.106.054-.265v-.106c0-.213-.217-.372-.488-.372-.813 0-1.409 1.062-1.409 2.655v3.08c0 .584.217.743 1.138.743v.265c-.759-.106-1.138-.106-1.626-.106-.433 0-.812 0-1.625.106v-.159c.975-.053 1.138-.16 1.138-.743v-4.938c0-.956 0-.956-1.084-.956v-.212z" fill="#020D1C"/>
  <path d="M67.14 14.493h-.27a4.04 4.04 0 00-.38-1.062c-.325-.478-.867-.796-1.409-.796-1.192 0-1.897 1.274-1.897 3.451s.596 3.186 1.843 3.186c.975 0 1.463-.637 1.68-2.018h.596c-.163 1.593-1.03 2.443-2.33 2.443-1.734 0-2.872-1.434-2.872-3.664 0-2.283 1.138-3.823 2.926-3.823.596 0 1.03.16 1.463.584l.38-.743h.27v2.442z" fill="#020D1C"/>
  <path d="M74.24 17.257c-.162 1.592-1.138 2.495-2.6 2.495-2.006 0-3.035-1.274-3.035-3.663 0-2.337 1.138-3.823 2.926-3.823 1.788 0 2.71 1.22 2.71 3.504H69.58c0 2.39.704 3.504 2.113 3.504 1.138 0 1.788-.69 2.005-2.017h.542zm-.921-2.018c-.108-1.7-.704-2.602-1.788-2.602-1.03 0-1.734.956-1.897 2.602h3.685z" fill="#020D1C"/>
  <path d="M82.313 19.431c-1.03.107-1.3.16-1.842.372a5.245 5.245 0 01-.163-1.328c-.433.903-1.084 1.328-2.005 1.328-1.626 0-2.71-1.487-2.71-3.664s1.139-3.716 2.71-3.716c.867 0 1.41.371 1.897 1.327v-2.92c0-.744-.109-.797-1.138-.797v-.212c.758-.106 1.463-.212 2.059-.372v8.761c0 .584.054.796.271.956.163.106.217.106.867.106l.054.16zm-5.69-3.398c0 2.07.65 3.292 1.843 3.292 1.192 0 1.788-1.115 1.788-3.133 0-2.23-.65-3.45-1.842-3.45-1.193.052-1.789 1.167-1.789 3.291z" fill="#020D1C"/>
  <path d="M88.98 17.257c-.163 1.592-1.139 2.495-2.602 2.495-2.005 0-3.034-1.274-3.034-3.663 0-2.337 1.138-3.823 2.926-3.823 1.788 0 2.71 1.22 2.71 3.504h-4.66c0 2.39.65 3.504 2.113 3.504 1.137 0 1.788-.69 2.004-2.017h.542zm-.976-2.018c-.108-1.7-.65-2.602-1.788-2.602-1.03 0-1.734.956-1.897 2.602h3.685z" fill="#020D1C"/>
  <path d="M90.388 17.306h.27c.109.531.217.743.38 1.062.325.584.975.956 1.68.956.975 0 1.68-.584 1.68-1.434 0-.53-.271-.796-.867-1.115-.163-.106-.163-.106-1.518-.637-1.138-.478-1.463-.903-1.463-1.805 0-1.168.922-1.965 2.222-1.965.596 0 .975.107 1.517.425l.217-.584h.271v2.283h-.27c-.11-1.221-.651-1.805-1.627-1.805-.867 0-1.517.584-1.517 1.327 0 .478.271.797.867 1.115.271.107.325.16 1.463.584 1.138.478 1.572.956 1.572 1.806 0 1.274-1.03 2.123-2.439 2.123-.65 0-1.3-.212-1.842-.584l-.325.584h-.271v-2.336z" fill="#020D1C"/>
  <path d="M96.077 15.185v.638h3.902v-.638h-3.902z" fill="#020D1C"/>
  <path d="M104.422 9.504c.976 0 1.626.16 2.114.584.541.425.867 1.115.867 1.858 0 1.062-.597 1.806-1.626 2.284 1.409.318 2.167 1.168 2.167 2.495 0 .903-.433 1.805-1.138 2.283-.596.425-1.246.584-2.384.584h-3.793v-.265c1.138-.107 1.3-.213 1.3-1.01v-7.539c0-.743-.162-.902-1.3-.956v-.265l3.793-.053zm-.433 4.62c.975 0 1.354-.107 1.734-.532.379-.371.596-.902.596-1.593 0-.637-.163-1.22-.434-1.54-.271-.371-.758-.53-1.517-.53h-1.463v4.194h1.084zm-1.138 4.247c0 .743.162.85 1.029.85h.596c1.409 0 2.276-.956 2.276-2.443 0-.743-.216-1.327-.596-1.752-.379-.372-.867-.531-1.68-.531h-1.571v3.876h-.054z" fill="#020D1C"/>
  <path d="M114.99 17.257c-.162 1.592-1.138 2.495-2.601 2.495-2.005 0-3.035-1.274-3.035-3.663 0-2.337 1.138-3.823 2.927-3.823 1.788 0 2.709 1.22 2.709 3.504h-4.714c0 2.39.65 3.504 2.113 3.504 1.138 0 1.788-.69 2.005-2.017h.596zm-1.029-2.018c-.109-1.7-.651-2.602-1.789-2.602-1.029 0-1.734.956-1.896 2.602h3.685z" fill="#020D1C"/>
  <path d="M116.128 12.634c.759-.106 1.3-.266 1.842-.425.055.425.109.584.109 1.327.542-.796 1.138-1.168 2.005-1.168.758 0 1.463.372 1.896.956.271.372.325.903.325 1.593v3.664c0 .584.163.743 1.138.743v.265c-.758-.106-1.138-.106-1.625-.106-.434 0-.813 0-1.626.106v-.212c.975-.053 1.138-.16 1.138-.743V14.97c0-.743-.108-1.115-.271-1.434-.271-.371-.65-.584-1.192-.584-.596 0-1.138.266-1.409.69-.271.32-.325.69-.325 1.381v3.61c0 .585.217.744 1.138.744v.265c-.759-.106-1.138-.106-1.626-.106-.487 0-.813 0-1.625.106v-.265c.975-.053 1.138-.16 1.138-.743v-4.938c0-.584 0-.637-.109-.744-.108-.106-.271-.106-.975-.106l.054-.212z" fill="#020D1C"/>
  <path d="M128.753 12.796h-2.005c-.975 0-1.138.212-1.734 1.486h-.271l.325-1.858h4.931l-4.28 6.85h2.113c.759 0 1.029-.107 1.409-.691.217-.265.325-.584.433-1.009h.271l-.379 2.07h-5.148l4.335-6.848z" fill="#020D1C"/>
  <path d="M25.415 4.248C22.597 1.487 18.858 0 14.902 0A14.96 14.96 0 004.389 4.3C1.517 7.063 0 10.673 0 14.602c0 3.876 1.571 7.54 4.39 10.301a14.96 14.96 0 0010.512 4.3 14.96 14.96 0 0010.513-4.3c2.818-2.761 4.389-6.425 4.389-10.3 0-3.93-1.571-7.54-4.39-10.354zM4.444 24.53C.867 20.814-.813 15.132.975 9.982c.271-.85.596-1.699 1.138-2.495C4.39 3.504 8.995.425 13.602.159c6.34-.478 12.192 2.974 14.63 8.549.597 1.38.867 2.442 1.03 4.141-.325-2.124-1.138-3.663-1.842-4.99-1.193-2.125-3.143-4.036-5.31-5.31C18.261.106 12.3-.106 8.29 2.124 5.799 3.398 3.794 5.31 2.494 7.646c-1.355 2.442-2.06 5.31-1.789 8.23.271 3.292 1.897 6.69 4.444 9.185l-.704-.53zM.975 15.132c.326 2.815 1.138 4.62 1.789 5.788.108.265-.109.478-.38-.106-.542-1.275-1.354-2.761-1.409-5.682zm18.37 12.743c-5.418 1.646-11.217.16-14.847-3.929-.705-.743-1.084-1.274-1.68-2.283-.217-.265.054-.425.162-.265 2.872 4.672 8.291 7.22 13.927 6.53a14.115 14.115 0 009.7-6.212c-.108-.053-.163-.106-.217-.106A13.536 13.536 0 0124.44 24a13.858 13.858 0 01-9.592 3.875c-3.63 0-7.045-1.38-9.592-3.876-.758-.743-1.463-1.592-2.005-2.548.055.106.109.265.109.318l-.488-.584-.27-.69c.107.16.162.265.27.265a13.298 13.298 0 01-1.517-6.159c0-3.557 1.409-6.902 3.956-9.398 2.546-2.495 5.906-3.876 9.483-3.929l.054-.159c.054-.106.054-.372.27-.319.217 0 .272.107.326.372l.054.16a13.502 13.502 0 019.104 3.875 13.077 13.077 0 013.956 9.398c0 2.337-.596 4.62-1.789 6.584l.109.107.054-.054.108.107c1.03-1.593 1.626-3.61 1.734-5.682.217-2.867-.487-5.84-1.95-8.07-.597-.85-1.464-2.018-2.168-2.814 3.306 2.973 4.769 6.902 4.715 11.044-.488 5.31-4.715 10.513-10.025 12.052z" fill="#020D1C"/>
  <path d="M14.035 13.806l.759.425.27-13.008-1.029 12.583z" fill="#020D1C"/>
  <path d="M16.852 13.91s9.484 7.063 9.809 7.275h.054l-9.266-7.646-.597.372z" fill="#020D1C"/>
  <path d="M15.66 14.601l10.784 6.637-10.35-6.902-.434.265z" fill="#020D1C"/>
  <path d="M26.553 21.451L15.28 14.867v2.39l-.108-.054L26.39 21.61s.054 0 .054.053c0-.106.054-.159.109-.212z" fill="#020D1C"/>
  <path d="M11.271 16.248l3.36-1.646-.65-.372-2.71 2.018z" fill="#020D1C"/>
  <path d="M12.843 13.06l.596.372 1.3-12.159h-.053L12.68 13.22l.162-.16z" fill="#020D1C"/>
  <path d="M3.305 21.238l11.542-4.035V14.76L3.034 21.026l10.296-7.274-.65-.425.108-.106-9.591 7.433a.34.34 0 01-.38.053c.109.266.271.478.434.744v-.053l.054-.16z" fill="#020D1C"/>
  <path d="M15.39 14.176l1.842-1.062.054.265-1.951-12.106h-.108l.162 12.903z" fill="#020D1C"/>
  <path d="M26.932 21.292l-.108-.106-.055.053-.108-.106c.271.212 0 .318-.108.265-.055.107-.109.107-.109.213.055.053.109.106.217.106.325.053.434-.212.271-.425z" fill="#020D1C"/>
  <path d="M27.04 21.663c.109-.106.109-.212-.108-.425.163.266.109.425-.27.425.108.106.27.16.379 0z" fill="#020D1C"/>
</svg>
