<svg width="130" height="32" viewBox="0 0 130 32" fill="none" xmlns="http://www.w3.org/2000/svg">
  <path d="M-.03 14.716l.119-.568.237-1.817H4.82c.236 0 .295.057.414.227l.65 1.306.769-.852c.65-.568 1.537-.965 2.424-1.022.592-.057 1.183 0 1.834.17.828.284 1.419.739 1.655 1.648l.06.227.118-.057c.828-1.022 1.951-1.534 3.252-1.76 1.301-.228 2.543-.228 3.726.397.887.454 1.537 1.136 1.714 2.101.06.398 0 .852-.059 1.25l-.177 1.193-.237 1.76-.177 1.648-.237 1.76-.118 1.136-.059.398h-4.14l.06-.34.118-1.137.237-1.874c.177-1.193.295-2.386.414-3.578.059-.682-.237-1.364-1.065-1.59-.887-.228-1.833.056-2.247.794-.237.341-.296.739-.355 1.136l-.295 2.272-.178 1.704-.236 1.704-.06.909H8.486l.177-1.306.237-1.875.118-1.25.237-1.76.059-1.193c-.06-.568-.414-.852-.946-1.022-.887-.284-1.952.057-2.366.795l-.354 1.022a30.09 30.09 0 00-.473 4.033c-.06.739-.178 1.477-.296 2.215v.398H.68L1.804 15H.089c-.118-.113-.118-.17-.118-.284z" fill="#ADADAD"/>
  <path d="M46.982 23.177c-.591.228-1.064.569-1.656.739-.887.284-1.774.34-2.72.227-.887-.057-1.774-.227-2.543-.625-.946-.397-1.774-1.079-2.247-1.93-.591-.966-.887-2.16-.71-3.295.119-1.306.592-2.556 1.538-3.635a7.848 7.848 0 014.435-2.5c.592-.113 1.183-.227 1.774-.227 1.301 0 2.484.341 3.49 1.307l.117-1.023h4.14l-.118 1.136-.178 1.136-.236 1.704-.178 1.59c-.059.512-.118 1.08-.236 1.591l-.178 1.59-.236 1.648-.118 1.136c-.06 1.25-.533 2.442-1.301 3.464a8.215 8.215 0 01-3.371 2.556c-1.005.398-2.01.739-3.134.909l-2.72.284-1.301.057.059-.682.414-3.18c0-.057.118-.171.236-.171l1.538-.057c1.064-.056 2.01-.227 3.015-.681a4.743 4.743 0 001.597-1.023c.473-.51.769-1.022.887-1.704-.118 0-.118-.17-.059-.34zm-2.838-8.008c-.887.057-1.715.511-2.366 1.306-.532.739-.768 1.59-.65 2.5.177 1.249 1.064 2.101 2.365 2.101 1.064.057 2.13-.398 2.72-1.306.592-.796.828-1.818.592-2.784-.118-1.136-1.065-1.817-2.661-1.817zm15.079 9.03c-1.242-.056-2.484-.226-3.607-.851-1.36-.682-2.366-1.988-2.602-3.465-.237-1.42-.06-2.726.591-3.976.592-1.193 1.597-2.158 2.839-2.896a8.67 8.67 0 017.924-.284c1.419.681 2.365 1.76 2.66 3.294.355 1.76 0 3.351-.945 4.885-.828 1.25-2.011 2.215-3.49 2.67a8.766 8.766 0 01-2.424.51c-.355.114-.65.114-.946.114zm3.666-6.531l-.059-.568c-.118-.625-.414-1.136-1.005-1.477-.591-.397-1.301-.51-2.01-.397-1.065.17-1.952.908-2.366 1.874-.236.568-.355 1.136-.296 1.76.06.74.355 1.364 1.006 1.762 1.005.625 2.306.568 3.252-.057 1.005-.625 1.42-1.647 1.478-2.897zm-26.788-.398c.06 1.137-.236 2.272-.768 3.238-.65 1.363-1.834 2.386-3.312 2.954-2.129.852-4.435.965-6.623.227-1.656-.568-2.898-1.988-3.252-3.635-.355-1.761.059-3.351 1.064-4.885 1.005-1.42 2.365-2.272 4.021-2.783.71-.227 1.36-.284 2.13-.341 1.182-.057 2.305.057 3.37.454 1.774.682 2.956 1.875 3.311 3.692l.06.568v.511zm-6.623-2.101l-.591.057c-.946.17-1.774.738-2.188 1.533a3.491 3.491 0 00-.473 2.329c.118.738.473 1.363 1.183 1.704.59.34 1.241.398 1.951.227a3.198 3.198 0 001.478-.681c.828-.796 1.301-1.931 1.124-3.068-.237-1.25-1.183-2.101-2.484-2.101z" fill="#ADADAD"/>
  <path d="M-.03 14.716l.119-.568.237-1.818H4.82c.236 0 .295.057.414.227l.65 1.307.769-.852c.65-.568 1.537-.966 2.424-1.023.592-.057 1.183 0 1.834.17.828.285 1.419.74 1.655 1.648l.06.227.118-.057c.828-1.022 1.951-1.533 3.252-1.76 1.301-.228 2.543-.228 3.726.397.887.454 1.537 1.136 1.714 2.102.06.397 0 .852-.059 1.25l-.177 1.192-.237 1.76-.177 1.648-.237 1.76-.118 1.137-.059.397h-4.14l.06-.34.118-1.136.237-1.875c.177-1.193.295-2.386.414-3.578.059-.682-.237-1.363-1.065-1.59-.887-.228-1.833.056-2.247.795-.237.34-.296.738-.355 1.136l-.295 2.272-.178 1.703-.236 1.704-.06.91H8.486l.177-1.307.237-1.874.118-1.25.237-1.76.059-1.194c-.06-.568-.414-.852-.946-1.022-.887-.284-1.952.057-2.366.795l-.354 1.023a30.09 30.09 0 00-.473 4.032c-.06.739-.178 1.477-.296 2.215v.398H.68L1.804 15H.089c-.118-.114-.118-.17-.118-.284z" fill="#8AC031"/>
  <path d="M46.982 23.177c-.591.228-1.064.569-1.656.739-.887.284-1.774.34-2.72.227-.887-.057-1.774-.227-2.543-.625-.946-.397-1.774-1.079-2.247-1.93-.591-.966-.887-2.16-.71-3.295.119-1.306.592-2.556 1.538-3.635a7.848 7.848 0 014.435-2.5c.592-.113 1.183-.227 1.774-.227 1.301 0 2.484.341 3.49 1.307l.117-1.023h4.14l-.118 1.136-.178 1.136-.236 1.704-.178 1.59c-.059.512-.118 1.08-.236 1.591l-.178 1.59-.236 1.648-.118 1.136c-.06 1.25-.533 2.442-1.301 3.464a8.215 8.215 0 01-3.371 2.556c-1.005.398-2.01.739-3.134.909l-2.72.284-1.301.057.059-.682.414-3.18c0-.057.118-.171.236-.171l1.538-.057c1.064-.056 2.01-.227 3.015-.681a4.743 4.743 0 001.597-1.023c.473-.51.769-1.022.887-1.704-.118 0-.118-.17-.059-.34zm-2.838-8.008c-.887.057-1.715.511-2.366 1.306-.532.739-.768 1.59-.65 2.5.177 1.249 1.064 2.101 2.365 2.101 1.064.057 2.13-.398 2.72-1.306.592-.796.828-1.818.592-2.784-.118-1.136-1.065-1.817-2.661-1.817zm15.079 9.03c-1.242-.056-2.484-.226-3.607-.851-1.36-.682-2.366-1.988-2.602-3.465-.237-1.42-.06-2.726.591-3.976.592-1.193 1.597-2.158 2.839-2.896a8.67 8.67 0 017.924-.284c1.419.681 2.365 1.76 2.66 3.294.355 1.76 0 3.351-.945 4.885-.828 1.25-2.011 2.215-3.49 2.67a8.766 8.766 0 01-2.424.51c-.355.114-.65.114-.946.114zm3.666-6.531l-.059-.568c-.118-.625-.414-1.136-1.005-1.477-.591-.397-1.301-.51-2.01-.397-1.065.17-1.952.908-2.366 1.874-.236.568-.355 1.136-.296 1.76.06.74.355 1.364 1.006 1.762 1.005.625 2.306.568 3.252-.057 1.005-.625 1.42-1.647 1.478-2.897zm-26.788-.398c.06 1.137-.236 2.272-.768 3.238-.65 1.363-1.834 2.386-3.312 2.954-2.129.852-4.435.965-6.623.227-1.656-.568-2.898-1.988-3.252-3.635-.355-1.761.059-3.351 1.064-4.885 1.005-1.42 2.365-2.272 4.021-2.783.71-.227 1.36-.284 2.13-.341 1.182-.057 2.305.057 3.37.454 1.774.682 2.956 1.875 3.311 3.692l.06.568v.511zm-6.623-2.101l-.591.057c-.946.17-1.774.738-2.188 1.533a3.491 3.491 0 00-.473 2.329c.118.738.473 1.363 1.183 1.704.59.34 1.241.398 1.951.227a3.198 3.198 0 001.478-.681c.828-.796 1.301-1.931 1.124-3.068-.237-1.25-1.183-2.101-2.484-2.101z" fill="#8ABE30"/>
  <path d="M69.662 15.851c-.059.284-.059.625-.177.91-.177.624-.236 1.249-.71 1.76l.06-.284.354-2.215a4.852 4.852 0 00-.354-2.215 5.827 5.827 0 00-1.36-2.215c-1.183-1.307-2.72-2.045-4.436-2.386-.828-.17-1.596-.227-2.424-.284-.178 0-.237-.057-.355-.227-.532-.966-1.183-1.76-1.951-2.556a18.262 18.262 0 00-3.608-2.67c-1.537-.852-3.193-1.42-4.908-1.647l-1.951-.113-1.597-.057a16.734 16.734 0 00-7.392 1.874c-2.247 1.136-4.317 2.613-6.031 4.43l-.71.796-.237.057-2.188.113c-1.36.17-2.779.455-4.08.966-1.242.51-2.424 1.136-3.489 1.93-.059 0-.059.058-.118 0l.236-.283c.533-.454 1.065-.966 1.597-1.306.828-.568 1.715-1.023 2.543-1.477a12.131 12.131 0 013.785-1.136l1.064-.17.118-.057 1.242-1.25c1.478-1.363 3.075-2.613 4.85-3.635 2.246-1.25 4.73-1.988 7.332-2.272a14.764 14.764 0 016.682.34c1.183.342 2.365.796 3.489 1.307a14.015 14.015 0 012.838 1.818c.592.51 1.183.965 1.715 1.533.592.682 1.124 1.42 1.597 2.215.236.341.473.341.769.398 1.774.227 3.489.738 4.967 1.76 1.36.91 2.188 2.159 2.543 3.75l.177.738c.118.625.118 1.193.118 1.76z" fill="#013168"/>
  <path d="M71.554 15.795h.828c.06-1.023.178-1.648.237-1.875.059-.454.354-.795.71-1.022.473-.284 1.005-.398 1.537-.398s1.064.114 1.597.284l-.119 1.534-.828-.114c-.236 0-.473.057-.591.17a.67.67 0 00-.177.455l-.06 1.022h1.42l-.119 1.704H74.57l-.532 6.305h-2.365l.532-6.305h-.828l.177-1.76zm5.618 0h2.306l-.65 8.065h-2.306l.65-8.065zm1.42-3.352c.413 0 .709.114 1.005.398.236.227.414.568.355.909-.06.397-.237.681-.533.909-.295.227-.65.397-1.064.397-.414 0-.71-.114-1.006-.397-.295-.228-.413-.625-.354-.966.059-.398.177-.682.532-.909.296-.227.65-.34 1.064-.34zm2.956 3.352h2.306l-.059.851c.592-.397 1.064-.681 1.479-.795.413-.17.887-.227 1.3-.227.888 0 1.656.284 2.248.852.473.454.71 1.136.591 2.102l-.414 5.282h-2.247l.296-3.522v-1.93c-.06-.342-.237-.569-.414-.682-.237-.17-.533-.228-.887-.228-.473 0-.888.114-1.183.398-.355.284-.591.681-.769 1.136-.059.227-.177.795-.236 1.647l-.237 3.238h-2.306l.532-8.122zm16.38 0h2.307l-.65 8.065h-2.307l.059-.852c-.414.34-.887.625-1.419.795-.474.17-.946.227-1.478.227-1.183 0-2.189-.397-2.957-1.193-.77-.795-1.124-1.76-1.065-3.01.06-1.25.591-2.272 1.479-3.01 1.24-1.136 3.075-1.477 4.671-.909.474.17.887.454 1.242.852l.118-.965zm-2.542 1.647c-1.42 0-2.543 1.022-2.661 2.385-.06.682.118 1.25.591 1.704.473.454 1.005.682 1.714.682.71 0 1.36-.228 1.834-.682.532-.454.768-1.022.887-1.76.059-.682-.119-1.25-.591-1.705-.473-.397-1.124-.624-1.774-.624zm6.15-1.647h2.306l-.059.851c.591-.397 1.064-.681 1.478-.795.414-.17.887-.227 1.301-.227.887 0 1.656.284 2.247.852.473.454.71 1.136.591 2.102l-.413 5.339h-2.247l.295-3.522v-1.93c-.06-.342-.237-.569-.414-.683-.236-.17-.532-.227-.887-.227-.473 0-.887.114-1.182.398-.356.284-.592.681-.769 1.136-.059.227-.178.795-.237 1.647l-.354 3.124h-2.307l.651-8.065zm18.153 1.59l-2.01.909c-.355-.341-.65-.568-1.005-.682-.355-.114-.768-.227-1.183-.227-.886 0-1.537.227-2.129.681-.591.455-.887 1.023-.946 1.761-.058.682.177 1.25.651 1.647.473.398 1.124.682 1.951.682 1.065 0 1.834-.284 2.484-.909l1.715 1.08c-1.064 1.135-2.661 1.76-4.258 1.647-1.597 0-2.838-.398-3.667-1.25-.827-.852-1.182-1.818-1.123-2.954.119-1.647 1.242-3.067 2.838-3.692.829-.397 1.716-.567 2.662-.567.887 0 1.715.17 2.365.454.709.397 1.183.852 1.655 1.42zm9.995 3.01h-7.333c.059.568.296 1.023.709 1.363.414.341 1.006.512 1.715.512.887 0 1.597-.228 2.247-.796l1.833.796c-.532.567-1.123 1.022-1.833 1.306-.709.284-1.537.398-2.424.398-1.419 0-2.542-.398-3.371-1.193-.827-.796-1.182-1.761-1.123-3.01.059-1.25.651-2.273 1.597-3.068.946-.852 2.188-1.25 3.488-1.192 1.419 0 2.543.397 3.431 1.192.827.852 1.182 1.875 1.064 3.181v.511zm-2.13-1.647a1.718 1.718 0 00-.827-1.08c-.414-.283-.888-.397-1.538-.397s-1.183.17-1.715.455c-.295.227-.591.568-.886 1.022h4.966z" fill="#013168"/>
</svg>
