<svg width="66" height="35" viewBox="0 0 66 35" fill="none" xmlns="http://www.w3.org/2000/svg">
  <path d="M42.888 11.523V9.73h5.889l-.64 1.793h-5.25z" fill="#AEC44E"/>
  <path d="M56.329 0l-7.105 16.77h2.24l5.953-14.466 3.136 7.426h-2.816l-.64 1.792h4.225l2.304 5.249h2.24L58.761 0H56.33z" fill="#AEC44E"/>
  <path d="M29.637 16.77V0h10.946v1.728h-8.77v5.697h8.322v1.729h-8.322v5.889h8.898v1.728H29.637z" fill="#AEC44E"/>
  <path d="M0 16.771V.064h7.617c2.305 0 4.225 1.025 4.225 4.161 0 3.905-4.523 5.1-6.657 5.441L4.8 7.81c1.579-.32 4.8-1.088 4.8-3.52 0-1.998-.96-2.497-3.648-2.497h-3.84V16.77H0z" fill="#AEC44E"/>
  <path d="M16.707 16.771H14.53V.064h7.17c2.816 0 4.736 1.217 4.736 3.521.128 2.368-.96 3.2-1.6 3.777-.64.576-2.262 1.323-3.008 1.536l5.697 7.873h-2.817l-5.313-7.489V7.81s4.865-.448 4.737-3.84c-.066-1.74-1.28-2.177-3.009-2.177h-4.416V16.77z" fill="#AEC44E"/>
  <path d="M55.434 21.06c0 1.076 1.408 3.649 2.112 4.801.64-1.088 2.112-3.457 2.112-4.8 0-1.665-1.088-2.305-2.176-2.305s-2.048.96-2.048 2.304z" fill="#8E146C"/>
  <path d="M.532 24.572v1.583H0v-4.042h1.489c.442 0 .787.113 1.037.338.251.226.377.525.377.897 0 .393-.123.695-.369.908-.244.21-.594.316-1.05.316H.531zm0-.435h.957c.285 0 .503-.067.654-.2.152-.135.228-.33.228-.583 0-.24-.076-.433-.228-.578-.151-.144-.36-.22-.624-.225H.532v1.586z" fill="#595958"/>
  <path d="M5.094 23.612a1.53 1.53 0 00-.253-.02c-.336 0-.564.144-.684.43v2.133h-.513V23.15h.499l.008.347a.799.799 0 01.715-.402c.1 0 .176.012.228.038v.478z" fill="#595958"/>
  <path d="M5.519 24.625c0-.294.057-.559.171-.794.117-.235.278-.416.483-.544.207-.128.443-.191.707-.191.408 0 .738.141.99.424.253.283.38.66.38 1.13v.036c0 .293-.057.555-.17.789-.11.231-.27.412-.48.541a1.32 1.32 0 01-.715.194c-.406 0-.736-.141-.99-.424-.25-.284-.376-.658-.376-1.125v-.036zm.515.061c0 .333.077.6.23.802a.744.744 0 00.621.303c.261 0 .468-.102.622-.305.153-.206.23-.492.23-.86 0-.33-.079-.597-.236-.8a.74.74 0 00-.621-.309c-.253 0-.458.101-.613.303-.155.202-.233.49-.233.866z" fill="#595958"/>
  <path d="M10.238 25.791a.739.739 0 00.48-.166.586.586 0 00.227-.417h.485a.932.932 0 01-.177.492c-.11.155-.255.279-.438.372a1.25 1.25 0 01-.577.138c-.408 0-.734-.136-.976-.408-.24-.274-.36-.648-.36-1.121v-.086c0-.293.053-.553.16-.78.108-.228.261-.405.46-.53.202-.127.44-.19.713-.19.337 0 .616.101.838.303.223.202.342.464.357.786h-.485a.7.7 0 00-.71-.667c-.26 0-.463.095-.607.284-.142.187-.213.458-.213.813v.097c0 .346.07.613.213.8.142.187.346.28.61.28z" fill="#595958"/>
  <path d="M13.394 26.21c-.407 0-.738-.133-.993-.4-.255-.268-.382-.626-.382-1.074v-.094c0-.298.056-.564.169-.797.114-.235.273-.418.477-.55.205-.133.427-.2.665-.2.39 0 .693.13.91.386.216.258.324.626.324 1.105v.214H12.53c.008.296.094.536.258.72a.82.82 0 00.633.271.893.893 0 00.46-.11c.126-.075.235-.173.33-.295l.313.244c-.251.387-.628.58-1.131.58zm-.064-2.693a.682.682 0 00-.521.228c-.14.15-.228.361-.26.633h1.502v-.039c-.015-.26-.085-.462-.21-.605a.642.642 0 00-.511-.217z" fill="#595958"/>
  <path d="M17.049 25.358a.374.374 0 00-.158-.322c-.104-.078-.286-.144-.547-.2a2.609 2.609 0 01-.618-.2.895.895 0 01-.338-.277.671.671 0 01-.108-.384.78.78 0 01.31-.624c.21-.17.475-.255.799-.255.34 0 .615.087.826.263.212.176.319.4.319.675h-.516c0-.14-.06-.262-.18-.364a.664.664 0 00-.45-.153c-.186 0-.332.041-.437.123a.385.385 0 00-.158.319c0 .124.049.217.147.28.098.063.274.123.53.18.256.058.464.127.623.206a.89.89 0 01.352.289.695.695 0 01.117.408.773.773 0 01-.322.647c-.214.16-.493.241-.835.241-.24 0-.453-.042-.637-.127a1.05 1.05 0 01-.436-.356.872.872 0 01-.155-.497h.513c.01.172.078.31.205.411.13.1.3.15.51.15.194 0 .35-.039.466-.116a.365.365 0 00.178-.317z" fill="#595958"/>
  <path d="M20.118 25.358a.374.374 0 00-.158-.322c-.103-.078-.285-.144-.546-.2a2.609 2.609 0 01-.618-.2.895.895 0 01-.338-.277.671.671 0 01-.108-.384.78.78 0 01.31-.624c.209-.17.475-.255.799-.255.34 0 .615.087.826.263.212.176.319.4.319.675h-.516c0-.14-.06-.262-.18-.364a.664.664 0 00-.45-.153c-.186 0-.332.041-.438.123a.385.385 0 00-.158.319c0 .124.05.217.147.28.098.063.275.123.53.18.257.058.465.127.624.206a.89.89 0 01.352.289.695.695 0 01.116.408.773.773 0 01-.321.647c-.215.16-.493.241-.835.241-.24 0-.453-.042-.638-.127a1.051 1.051 0 01-.435-.356.872.872 0 01-.155-.497h.513c.01.172.077.31.205.411.13.1.3.15.51.15.194 0 .35-.039.466-.116a.365.365 0 00.177-.317z" fill="#595958"/>
  <path d="M24.553 24.52h-.948v1.635h-.535v-4.042h1.336c.455 0 .804.103 1.048.31.246.208.369.51.369.906 0 .251-.069.47-.205.658a1.208 1.208 0 01-.566.419L26 26.122v.033h-.571l-.876-1.635zm-.948-.436h.818c.264 0 .474-.069.629-.206a.693.693 0 00.236-.55c0-.25-.075-.44-.225-.574-.148-.133-.362-.2-.643-.203h-.815v1.533z" fill="#595958"/>
  <path d="M26.497 24.625c0-.294.057-.559.172-.794.116-.235.277-.416.482-.544.207-.128.443-.191.707-.191.409 0 .739.141.99.424.253.283.38.66.38 1.13v.036c0 .293-.056.555-.17.789-.11.231-.27.412-.479.541a1.32 1.32 0 01-.715.194c-.407 0-.737-.141-.99-.424-.251-.284-.377-.658-.377-1.125v-.036zm.516.061c0 .333.076.6.23.802a.744.744 0 00.62.303c.262 0 .469-.102.622-.305.153-.206.23-.492.23-.86 0-.33-.078-.597-.236-.8a.74.74 0 00-.62-.309c-.254 0-.458.101-.613.303-.156.202-.233.49-.233.866z" fill="#595958"/>
  <path d="M32.553 24.686c0 .46-.105.829-.316 1.108a1.01 1.01 0 01-.849.416c-.379 0-.672-.134-.879-.402l-.024.347h-.472V21.89h.513v1.59c.207-.257.493-.386.857-.386s.65.138.857.414c.209.276.313.654.313 1.133v.044zm-.513-.058c0-.35-.067-.62-.202-.81-.135-.191-.33-.287-.583-.287-.338 0-.581.158-.729.472v1.3c.157.314.402.471.735.471a.666.666 0 00.574-.286c.137-.19.205-.477.205-.86z" fill="#595958"/>
  <path d="M33.208 24.625c0-.294.057-.559.172-.794.116-.235.277-.416.482-.544.207-.128.443-.191.707-.191.409 0 .739.141.99.424.253.283.38.66.38 1.13v.036c0 .293-.057.555-.17.789-.11.231-.27.412-.479.541a1.32 1.32 0 01-.715.194c-.407 0-.737-.141-.99-.424-.252-.284-.377-.658-.377-1.125v-.036zm.516.061c0 .333.076.6.23.802a.744.744 0 00.62.303c.261 0 .468-.102.622-.305.153-.206.23-.492.23-.86 0-.33-.079-.597-.236-.8a.74.74 0 00-.62-.309c-.254 0-.458.101-.614.303-.155.202-.233.49-.233.866z" fill="#595958"/>
  <path d="M37.42 22.424v.727h.56v.397h-.56v1.863c0 .12.025.21.075.272.05.06.135.089.255.089.059 0 .14-.011.244-.034v.417a1.485 1.485 0 01-.394.055c-.23 0-.402-.07-.518-.208-.117-.139-.175-.336-.175-.591v-1.863h-.546v-.397h.546v-.727h.513z" fill="#595958"/>
  <path d="M39.28 26.155h-.512V23.15h.513v3.004zm-.554-3.8a.31.31 0 01.075-.212c.052-.057.128-.086.228-.086s.175.029.227.086a.303.303 0 01.078.211.294.294 0 01-.078.209c-.052.055-.128.083-.227.083-.1 0-.176-.028-.228-.084a.3.3 0 01-.075-.208z" fill="#595958"/>
  <path d="M41.45 25.791a.738.738 0 00.48-.166.586.586 0 00.227-.417h.485a.932.932 0 01-.178.492c-.109.155-.255.279-.438.372a1.25 1.25 0 01-.576.138c-.409 0-.734-.136-.976-.408-.24-.274-.36-.648-.36-1.121v-.086c0-.293.053-.553.16-.78.107-.228.26-.405.46-.53.202-.127.44-.19.713-.19.336 0 .615.101.837.303.224.202.343.464.358.786h-.485a.7.7 0 00-.71-.667c-.26 0-.463.095-.607.284-.143.187-.214.458-.214.813v.097c0 .346.071.613.214.8.142.187.345.28.61.28z" fill="#595958"/>
  <path d="M2.282 31.867H.532V33.3h2.033v.436H0v-4.042h2.537v.438H.532v1.3h1.75v.435z" fill="#595958"/>
  <path d="M5.14 33.736a1.08 1.08 0 01-.071-.317 1.144 1.144 0 01-.854.372c-.296 0-.539-.083-.73-.25a.82.82 0 01-.282-.638c0-.313.118-.555.355-.728.238-.173.573-.26 1.003-.26h.5v-.236a.572.572 0 00-.161-.428c-.107-.107-.266-.161-.474-.161a.747.747 0 00-.46.139c-.124.092-.186.204-.186.336h-.516c0-.15.053-.295.158-.433.107-.141.251-.252.432-.334.183-.081.384-.122.602-.122.346 0 .617.087.812.261.196.172.298.41.305.714v1.382c0 .276.036.495.106.658v.045H5.14zm-.85-.392a.9.9 0 00.457-.125.756.756 0 00.314-.325v-.616h-.402c-.629 0-.943.184-.943.553 0 .16.053.286.16.377.108.09.246.136.414.136z" fill="#595958"/>
  <path d="M8.266 32.939a.374.374 0 00-.158-.322c-.103-.078-.285-.145-.546-.2a2.613 2.613 0 01-.618-.2.895.895 0 01-.339-.277.671.671 0 01-.108-.384.78.78 0 01.31-.624c.21-.17.476-.256.8-.256.34 0 .615.088.826.264.212.176.318.4.318.675h-.515c0-.141-.06-.262-.18-.364a.664.664 0 00-.45-.153c-.186 0-.332.041-.438.122a.385.385 0 00-.158.32c0 .124.05.217.147.28.098.063.275.123.53.18.257.058.465.126.624.206a.89.89 0 01.352.289.694.694 0 01.116.408.773.773 0 01-.322.647c-.214.16-.492.241-.834.241a1.51 1.51 0 01-.638-.127 1.052 1.052 0 01-.435-.356.872.872 0 01-.155-.497h.513c.009.172.077.31.205.411.13.1.3.15.51.15.194 0 .35-.039.466-.117a.365.365 0 00.177-.316z" fill="#595958"/>
  <path d="M10.57 32.983l.7-2.251h.548l-1.206 3.467c-.186.5-.483.75-.89.75l-.097-.008-.191-.037v-.416l.139.011c.173 0 .308-.035.404-.105.098-.07.179-.2.242-.386l.113-.306-1.07-2.97h.56l.749 2.251z" fill="#595958"/>
  <path d="M16.81 31.928h-2.778v-.419h2.778v.42z" fill="#595958"/>
  <path d="M21.7 32.68h-1.692l-.38 1.056h-.549l1.542-4.042h.466l1.544 4.042h-.546l-.386-1.055zm-1.531-.438h1.372l-.687-1.89-.685 1.89z" fill="#595958"/>
  <path d="M25.055 33.439c-.2.235-.493.352-.88.352-.319 0-.563-.092-.731-.277-.166-.187-.25-.463-.252-.828v-1.954h.512v1.94c0 .456.185.683.555.683.392 0 .652-.146.782-.438v-2.185h.513v3.004h-.488l-.011-.297z" fill="#595958"/>
  <path d="M27.174 30.005v.727h.56v.397h-.56v1.863c0 .12.024.21.074.272.05.059.135.088.255.088.06 0 .141-.01.244-.033v.417a1.483 1.483 0 01-.393.055c-.23 0-.402-.07-.519-.208-.116-.139-.174-.336-.174-.591v-1.863h-.547v-.397h.547v-.727h.512z" fill="#595958"/>
  <path d="M28.286 32.206c0-.294.057-.559.172-.794.116-.235.277-.416.482-.544a1.32 1.32 0 01.707-.192c.409 0 .739.142.99.425.253.283.38.66.38 1.13v.036c0 .292-.056.555-.17.788-.11.232-.27.412-.479.542a1.32 1.32 0 01-.715.194c-.407 0-.737-.141-.99-.425-.251-.283-.377-.657-.377-1.124v-.036zm.516.061c0 .333.076.6.23.802a.744.744 0 00.62.303c.261 0 .468-.102.622-.305.153-.206.23-.493.23-.861 0-.33-.079-.596-.236-.8a.74.74 0 00-.62-.308c-.254 0-.458.101-.613.303-.156.202-.233.49-.233.866z" fill="#595958"/>
  <path d="M32.285 30.732l.013.333c.22-.26.517-.389.89-.389.42 0 .706.161.857.483.1-.144.23-.26.388-.35.161-.088.35-.133.569-.133.658 0 .992.35 1.003 1.047v2.013h-.513v-1.983c0-.214-.049-.374-.146-.48-.098-.107-.263-.16-.494-.16a.676.676 0 00-.474.171.687.687 0 00-.22.458v1.994h-.515v-1.969c0-.436-.213-.655-.64-.655-.337 0-.567.144-.69.43v2.194h-.514v-3.004h.486z" fill="#595958"/>
  <path d="M38.776 33.736a1.08 1.08 0 01-.072-.317 1.144 1.144 0 01-.854.372c-.296 0-.54-.083-.73-.25a.819.819 0 01-.282-.638c0-.313.118-.555.355-.728.238-.173.573-.26 1.003-.26h.5v-.236a.573.573 0 00-.161-.428c-.108-.107-.266-.161-.475-.161a.747.747 0 00-.46.139c-.124.092-.186.204-.186.336H36.9c0-.15.052-.295.158-.433.107-.141.251-.252.432-.334.183-.081.384-.122.602-.122.346 0 .616.087.812.261.196.172.298.41.305.714v1.382c0 .276.035.495.106.658v.045h-.538zm-.852-.392a.9.9 0 00.458-.125.755.755 0 00.313-.325v-.616h-.402c-.628 0-.942.184-.942.553 0 .16.053.286.16.377.108.09.245.136.413.136z" fill="#595958"/>
  <path d="M40.85 30.005v.727h.56v.397h-.56v1.863c0 .12.025.21.075.272.05.059.135.088.255.088.06 0 .14-.01.244-.033v.417a1.483 1.483 0 01-.394.055c-.229 0-.402-.07-.518-.208-.117-.139-.175-.336-.175-.591v-1.863h-.546v-.397h.546v-.727h.513z" fill="#595958"/>
  <path d="M42.711 33.736h-.513v-3.004h.513v3.004zm-.554-3.8a.31.31 0 01.075-.212c.051-.057.127-.086.227-.086s.175.029.227.086a.304.304 0 01.078.211.294.294 0 01-.078.208c-.052.056-.127.084-.227.084s-.176-.028-.228-.084a.3.3 0 01-.074-.208z" fill="#595958"/>
  <path d="M43.54 32.206c0-.294.058-.559.173-.794.116-.235.277-.416.482-.544.207-.128.443-.192.707-.192.408 0 .738.142.99.425.253.283.38.66.38 1.13v.036c0 .292-.057.555-.17.788-.11.232-.27.412-.48.542a1.32 1.32 0 01-.714.194c-.407 0-.737-.141-.99-.425-.252-.283-.377-.657-.377-1.124v-.036zm.516.061c0 .333.077.6.23.802a.744.744 0 00.622.303c.26 0 .467-.102.62-.305.154-.206.23-.493.23-.861 0-.33-.078-.596-.235-.8a.74.74 0 00-.621-.308c-.253 0-.458.101-.613.303-.155.202-.233.49-.233.866z" fill="#595958"/>
  <path d="M47.542 30.732l.017.377c.229-.288.528-.433.898-.433.634 0 .954.358.96 1.075v1.985h-.514v-1.988c-.001-.217-.051-.377-.15-.48-.095-.104-.246-.156-.451-.156a.74.74 0 00-.438.133.904.904 0 00-.294.35v2.14h-.513v-3.003h.485z" fill="#595958"/>
</svg>
