<svg width="84" height="35" viewBox="0 0 84 35" fill="none" xmlns="http://www.w3.org/2000/svg">
  <g clip-path="url(#clip0)" fill="#F10710">
    <path d="M75.603 31.758a3.74 3.74 0 01-.725.438c-.463.234-.965.473-1.422.473-.314 0-.541-.085-.716-.232a1.192 1.192 0 01-.189-.204c-.038-.052-.073-.104-.11-.153a3.021 3.021 0 01-.356-.665c-.728.727-2.027 1.342-3.917 1.342-1.597 0-2.862-.411-3.766-1.28-.882-.846-1.384-2.063-1.384-3.744v-9.596c0-.406.08-.681.367-.9.297-.23.864-.307 1.586-.307.704 0 1.273.079 1.567.311.284.218.363.492.363.897v9.154c0 1.362.551 2.035 2.138 2.035 1.59 0 2.53-.96 2.53-2.277v-8.913c0-.406.08-.681.367-.9.295-.23.84-.307 1.564-.307.704 0 1.273.079 1.567.311.284.218.364.492.364.897v10.654c0 .352.054.666.12.918.063.246.136.431.178.537.13.263.246.52.246.861-.001.288-.196.504-.372.65z"/>
    <path d="M58.289 20.656v10.64c0 .406-.081.682-.368.9-.296.23-.862.308-1.563.308-.725 0-1.295-.079-1.59-.311-.284-.218-.363-.493-.363-.897V20.941l-1.79.131c-1.603.118-1.666-1.261-1.666-2.028 0-1.516.552-2.06 1.543-2.06h7.719c.756 0 1.327.245 1.551 1.341.25 1.22.147 2.068-1.198 2.165l-2.275.166z"/>
    <path d="M82.563 32.229c-.296.23-.862.308-1.564.308-.724 0-1.294-.079-1.589-.312-.283-.218-.363-.492-.363-.896V18.138c0-.407.08-.682.368-.9.296-.23.863-.308 1.585-.308.704 0 1.273.079 1.567.311.284.218.364.493.364.897v13.191c0 .406-.081.682-.368.9z"/>
    <path d="M2.05 9.75h10.258c1.005 0 1.764.322 2.062 1.77.332 1.61.195 2.731-1.592 2.86l-3.22.232c2.37 15.185 16.228 20.134 23.773 3.78 1.249-2.707 1.658-3.2 3.026-2.855 1.854.466 2.108 1.433 1.224 4.162C31.057 39.86 9.131 41.881 4.83 14.957l-2.616.192C.084 15.304 0 13.483 0 12.469 0 10.468.733 9.75 2.05 9.75z"/>
    <path d="M39.343 0c2.103 0 3.808 1.728 3.808 3.86 0 2.132-1.705 3.86-3.808 3.86-2.102 0-3.807-1.728-3.807-3.86 0-2.132 1.704-3.86 3.807-3.86z"/>
  </g>
  <defs>
    <clipPath id="clip0">
      <rect width="84" height="35" fill="#fff"/>
    </clipPath>
  </defs>
</svg>
