<svg width="64" height="64" viewBox="0 0 64 64" fill="none" xmlns="http://www.w3.org/2000/svg">
<g clip-path="url(#clip0_10_80)">
<path d="M32 64C49.6731 64 64 49.6731 64 32C64 14.3269 49.6731 0 32 0C14.3269 0 0 14.3269 0 32C0 49.6731 14.3269 64 32 64Z" fill="black"/>
<path opacity="0.1" d="M9.82011 9C6.56707 11.8988 3.94031 15.4314 2.10082 19.3813C0.261341 23.3312 -0.752104 27.6152 -0.877392 31.9706C-1.00268 36.326 -0.237173 40.6611 1.37221 44.7102C2.98159 48.7593 5.40094 52.4371 8.48196 55.5181C11.563 58.5992 15.2408 61.0185 19.2899 62.6279C23.339 64.2373 27.6741 65.0028 32.0295 64.8775C36.3849 64.7522 40.6689 63.7388 44.6188 61.8993C48.5687 60.0598 52.1013 57.433 55.0001 54.18L9.82011 9Z" fill="white"/>
<path d="M7.40011 37.25C7.21345 37.2529 7.0282 37.2171 6.85608 37.1448C6.68395 37.0726 6.5287 36.9653 6.40011 36.83C6.268 36.6995 6.16359 36.5436 6.09314 36.3718C6.02269 36.2 5.98765 36.0157 5.99011 35.83C5.98878 35.6445 6.02434 35.4605 6.09472 35.2888C6.16511 35.1172 6.26892 34.9612 6.40011 34.83C6.52743 34.6924 6.68223 34.583 6.85448 34.5089C7.02674 34.4348 7.21262 34.3977 7.40011 34.4C7.58733 34.3995 7.77266 34.4375 7.94465 34.5114C8.11664 34.5854 8.27165 34.6938 8.40011 34.83C8.53357 34.96 8.63952 35.1156 8.71167 35.2873C8.78383 35.4591 8.8207 35.6437 8.82011 35.83C8.82186 36.0165 8.78551 36.2014 8.71329 36.3733C8.64107 36.5453 8.5345 36.7007 8.40011 36.83C8.27044 36.9639 8.11497 37.0702 7.9431 37.1424C7.77123 37.2145 7.58652 37.2512 7.40011 37.25Z" fill="white"/>
<path d="M27.2701 37H24.6501L15.2801 22.46C15.0467 22.1018 14.8522 21.7196 14.7001 21.32H14.6201C14.7091 22.1502 14.7425 22.9854 14.7201 23.82V37H12.5901V18.77H15.3601L24.4801 33.05C24.8601 33.6434 25.1068 34.05 25.2201 34.27H25.2701C25.1646 33.3808 25.1211 32.4853 25.1401 31.59V18.77H27.2701V37Z" fill="white"/>
<path d="M41.69 37H32V18.77H41.24V20.7H34.18V26.76H40.76V28.68H34.18V35H41.7L41.69 37Z" fill="white"/>
<path d="M56.0001 20.7H50.7001V37H48.5701V20.7H43.3301V18.77H56.0001V20.7Z" fill="white"/>
<path d="M26.12 49.4002C25.398 49.7498 24.6017 49.918 23.8 49.8902C23.2673 49.9142 22.7356 49.824 22.2406 49.6256C21.7456 49.4273 21.2987 49.1254 20.93 48.7402C20.1952 47.9177 19.8081 46.8423 19.85 45.7402C19.8231 45.1435 19.9163 44.5474 20.1242 43.9874C20.332 43.4274 20.6503 42.9148 21.06 42.4802C21.4593 42.0711 21.9393 41.7497 22.4695 41.5362C22.9998 41.3227 23.5687 41.2219 24.14 41.2402C24.8237 41.2168 25.5048 41.336 26.14 41.5902V42.5902C25.5285 42.2516 24.8389 42.0792 24.14 42.0902C23.6994 42.0778 23.2613 42.1607 22.8557 42.3333C22.4501 42.5059 22.0866 42.7641 21.79 43.0902C21.1663 43.8007 20.8436 44.7259 20.89 45.6702C20.8433 46.5646 21.1443 47.4425 21.73 48.1202C22.0109 48.4223 22.3539 48.66 22.7354 48.8171C23.1168 48.9742 23.5278 49.0469 23.94 49.0302C24.7078 49.0503 25.4661 48.8564 26.13 48.4702L26.12 49.4002Z" fill="#F2F2F2"/>
<path d="M30.2099 49.89C29.8118 49.9028 29.4156 49.83 29.0482 49.6765C28.6807 49.5229 28.3505 49.2922 28.0799 49C27.5331 48.3897 27.2492 47.5883 27.2899 46.77C27.2649 46.3412 27.3255 45.9118 27.4679 45.5066C27.6104 45.1015 27.832 44.7287 28.1199 44.41C28.4137 44.1232 28.7632 43.8999 29.1467 43.7537C29.5303 43.6075 29.9398 43.5415 30.3499 43.56C30.7375 43.5393 31.125 43.6028 31.4858 43.7461C31.8466 43.8894 32.172 44.109 32.4399 44.39C32.9714 45.0305 33.2395 45.8491 33.1899 46.68C33.2319 47.5232 32.941 48.3491 32.3799 48.98C32.1042 49.2779 31.7679 49.5133 31.3936 49.6703C31.0193 49.8272 30.6156 49.9022 30.2099 49.89ZM30.2799 44.42C30.0048 44.4084 29.7307 44.459 29.4779 44.5681C29.2251 44.6772 29.0002 44.8419 28.8199 45.05C28.4351 45.5454 28.2432 46.1637 28.2799 46.79C28.245 47.3976 28.4375 47.9965 28.8199 48.47C29.0021 48.6751 29.2276 48.8371 29.4801 48.9444C29.7326 49.0516 30.0058 49.1013 30.2799 49.09C30.5483 49.1058 30.8167 49.06 31.0646 48.9559C31.3124 48.8519 31.5332 48.6925 31.7099 48.49C32.0735 47.9932 32.2505 47.3842 32.2099 46.77C32.2494 46.1527 32.0726 45.541 31.7099 45.04C31.5357 44.8332 31.3159 44.6695 31.0677 44.562C30.8196 44.4544 30.55 44.4058 30.2799 44.42Z" fill="#F2F2F2"/>
<path d="M37.86 44.72C37.644 44.5785 37.3875 44.5118 37.13 44.53C36.9285 44.5373 36.732 44.5941 36.5576 44.6952C36.3832 44.7964 36.2364 44.9388 36.13 45.11C35.8323 45.5812 35.689 46.1335 35.72 46.69V49.75H34.72V43.75H35.72V45C35.8299 44.6132 36.0486 44.2662 36.35 44C36.6108 43.7737 36.9447 43.6494 37.29 43.65C37.4833 43.6413 37.6765 43.6685 37.86 43.73V44.72Z" fill="#F2F2F2"/>
<path d="M43.7201 47.0002H39.4901C39.4617 47.5592 39.6437 48.1086 40.0001 48.5402C40.1855 48.7251 40.4078 48.8688 40.6525 48.9618C40.8972 49.0549 41.1587 49.0952 41.4201 49.0802C42.098 49.0735 42.7536 48.8373 43.2801 48.4102V49.3102C42.6618 49.7177 41.9297 49.9174 41.1901 49.8802C40.817 49.8991 40.4442 49.8353 40.0985 49.6936C39.7528 49.5518 39.4426 49.3356 39.1901 49.0602C38.6695 48.4109 38.4093 47.5909 38.4601 46.7602C38.4242 45.9274 38.7066 45.1122 39.2501 44.4802C39.4974 44.1945 39.8052 43.9673 40.1511 43.8152C40.497 43.663 40.8724 43.5895 41.2501 43.6002C41.5912 43.5811 41.9322 43.6396 42.2474 43.7712C42.5626 43.9028 42.8439 44.1042 43.0701 44.3602C43.5306 44.9674 43.7577 45.7197 43.7101 46.4802L43.7201 47.0002ZM42.7201 46.1902C42.7404 45.7268 42.599 45.2708 42.3201 44.9002C42.1833 44.7456 42.0133 44.6239 41.8228 44.5443C41.6323 44.4646 41.4263 44.429 41.2201 44.4402C41.0049 44.4376 40.7915 44.4798 40.5935 44.5642C40.3955 44.6485 40.2173 44.7732 40.0701 44.9302C39.741 45.2784 39.5339 45.7241 39.4801 46.2002L42.7201 46.1902Z" fill="#F2F2F2"/>
</g>
<defs>
<clipPath id="clip0_10_80">
<rect width="64" height="64" fill="white"/>
</clipPath>
</defs>
</svg>
