<svg width="100" height="62" viewBox="0 0 100 62" fill="none" xmlns="http://www.w3.org/2000/svg">
<g clip-path="url(#clip0_10_374)">
<path d="M49.3421 61.1405C49.0126 61.1405 48.6854 61.0541 48.3966 60.8877L45.3868 59.1058C44.9373 58.8544 45.1566 58.7655 45.3049 58.7143C45.9043 58.5044 46.0259 58.457 46.6657 58.0937C46.7329 58.0553 46.8209 58.0689 46.8898 58.1095L49.202 59.4816C49.2855 59.5267 49.4039 59.5267 49.4814 59.4816L58.4969 54.2776C58.5804 54.2302 58.6345 54.1332 58.6345 54.0339V43.6305C58.6345 43.5267 58.5804 43.4342 58.4951 43.3823L49.4832 38.1828C49.3997 38.1332 49.2891 38.1332 49.2056 38.1828L40.1955 43.3823C40.1081 43.4319 40.0526 43.5289 40.0526 43.6282V54.0316C40.0526 54.1309 40.1068 54.2257 40.1925 54.2731L42.6614 55.6993C44.0019 56.3696 44.821 55.5797 44.821 54.7854V44.5174C44.821 44.3707 44.9361 44.2579 45.0828 44.2579H46.2247C46.3669 44.2579 46.4842 44.3707 46.4842 44.5174V54.7899C46.4842 56.5772 45.5093 57.604 43.8145 57.604C43.2932 57.604 42.8825 57.604 41.7361 57.0398L39.3711 55.6768C38.7866 55.3383 38.4255 54.7064 38.4255 54.0316V43.6282C38.4255 42.9512 38.7866 42.3193 39.3711 41.9854L48.3957 36.7791C48.9666 36.4564 49.7248 36.4564 50.2913 36.7791L59.3046 41.9876C59.8868 42.3239 60.2501 42.9535 60.2501 43.6305V54.0339C60.2501 54.7087 59.8868 55.3383 59.3046 55.6768L50.2913 60.883C50.0024 61.05 49.6752 61.1357 49.3412 61.1357" fill="black"/>
<path d="M52.127 53.9722C48.1823 53.9722 47.3552 52.1614 47.3552 50.6427C47.3552 50.4982 47.4717 50.3831 47.6163 50.3831H48.7808C48.9094 50.3831 49.0177 50.4768 49.038 50.6038C49.2141 51.7904 49.7376 52.3889 52.123 52.3889C54.0231 52.3889 54.831 51.9597 54.831 50.9521C54.831 50.3721 54.6008 49.941 51.6491 49.6522C49.1802 49.4085 47.6547 48.8646 47.6547 46.89C47.6547 45.0711 49.1892 43.9879 51.7596 43.9879C54.646 43.9879 56.0767 44.9898 56.2572 47.1427C56.264 47.2172 56.2369 47.2894 56.1873 47.3436C56.1376 47.3955 56.0677 47.4271 55.9955 47.4271H54.8242C54.7024 47.4271 54.5963 47.3413 54.5715 47.224C54.2894 45.976 53.6079 45.5766 51.7551 45.5766C49.6812 45.5766 49.4397 46.2987 49.4397 46.8403C49.4397 47.497 49.7241 47.6889 52.5224 48.059C55.2936 48.4268 56.6093 48.9458 56.6093 50.8934C56.6093 52.8567 54.9709 53.9828 52.1139 53.9828M63.0951 42.9498H63.3975C63.6457 42.9498 63.6931 42.776 63.6931 42.6745C63.6931 42.4082 63.5103 42.4082 63.4087 42.4082H63.0973L63.0951 42.9498ZM62.7272 42.0968H63.3975C63.6276 42.0968 64.079 42.0968 64.079 42.6113C64.079 42.9701 63.8488 43.0446 63.7111 43.0897C63.9797 43.1078 63.9977 43.2838 64.0338 43.532C64.0519 43.6877 64.0812 43.9563 64.1354 44.0465H63.7224C63.7111 43.9563 63.648 43.4598 63.648 43.4327C63.6209 43.3221 63.5825 43.268 63.4449 43.268H63.1041V44.0488H62.7272V42.0968ZM61.9216 43.0671C61.9216 43.875 62.5738 44.5295 63.3749 44.5295C64.1828 44.5295 64.835 43.8615 64.835 43.0671C64.835 42.257 64.1738 41.6138 63.3726 41.6138C62.5828 41.6138 61.9193 42.2479 61.9193 43.0649M65.1148 43.0716C65.1148 44.0285 64.3317 44.8093 63.3771 44.8093C62.4293 44.8093 61.6395 44.0375 61.6395 43.0716C61.6395 42.0877 62.4474 41.334 63.3771 41.334C64.3137 41.334 65.1126 42.09 65.1126 43.0716" fill="black"/>
<path fill-rule="evenodd" clip-rule="evenodd" d="M21.425 20.4344C21.425 20.0192 21.2061 19.6378 20.8477 19.4313L11.2892 13.9317C11.1279 13.8369 10.9471 13.7873 10.7639 13.7805H10.665C10.4818 13.7873 10.301 13.8369 10.1369 13.9317L0.5789 19.4313C0.222792 19.6389 0.000732422 20.0203 0.000732422 20.4355L0.0217198 35.2485C0.0217198 35.4539 0.127785 35.6457 0.308321 35.7473C0.484344 35.8556 0.705501 35.8556 0.881523 35.7473L6.5639 32.4931C6.92272 32.2796 7.14162 31.9023 7.14162 31.4911V24.5709C7.14162 24.158 7.36052 23.7766 7.7182 23.5712L10.1374 22.1779C10.317 22.0741 10.5143 22.0227 10.7151 22.0227C10.9128 22.0227 11.1145 22.0737 11.2892 22.1777L13.7073 23.5705C14.0652 23.7759 14.285 24.1573 14.285 24.5703V31.49C14.285 31.9007 14.5068 32.2798 14.8638 32.492L20.5426 35.7439C20.7209 35.8499 20.9427 35.8499 21.1203 35.7439C21.2954 35.6423 21.4065 35.4505 21.4065 35.2451L21.425 20.4344ZM66.5292 28.1469C66.5292 28.25 66.4744 28.3455 66.3848 28.3965L63.1017 30.289C63.0126 30.3402 62.9025 30.3402 62.8136 30.289L59.5301 28.3965C59.4398 28.3453 59.3856 28.2498 59.3856 28.1469V24.3566C59.3856 24.2532 59.4398 24.158 59.5278 24.1061L62.8091 22.2104C62.8993 22.1585 63.0099 22.1585 63.1002 22.2104L66.3837 24.1061C66.4739 24.158 66.5281 24.2532 66.5281 24.3566L66.5292 28.1469ZM67.4161 0.0730684C67.2369 -0.0266779 67.0189 -0.0239699 66.842 0.0791615C66.666 0.18297 66.5572 0.372533 66.5572 0.577893V15.2465C66.5572 15.3909 66.4805 15.524 66.3555 15.5963C66.2313 15.6685 66.0768 15.6685 65.9515 15.5963L63.5572 14.2172C63.2006 14.0109 62.7614 14.0109 62.4035 14.2172L52.8419 19.7355C52.4846 19.9409 52.2642 20.3222 52.2642 20.733V31.7728C52.2642 32.1857 52.4846 32.5649 52.8419 32.7725L62.4035 38.2946C62.7605 38.5 63.2001 38.5 63.5583 38.2946L73.1199 32.7702C73.4765 32.5626 73.6976 32.1835 73.6976 31.7705V4.25677C73.6976 3.83793 73.4697 3.45271 73.1041 3.24802L67.4161 0.0730684ZM99.2566 24.2568C99.6118 24.0505 99.8305 23.6696 99.8305 23.2589V20.5833C99.8305 20.1717 99.6116 19.7919 99.2557 19.5848L89.755 14.0694C89.3962 13.8618 88.9561 13.8618 88.5973 14.0694L79.0379 19.587C78.6791 19.7946 78.4602 20.1738 78.4602 20.5867V31.622C78.4602 32.0372 78.6836 32.4209 79.0424 32.6262L88.5409 38.0401C88.8907 38.2409 89.3194 38.2432 89.6737 38.0468L95.4193 34.8536C95.5998 34.7521 95.7149 34.5602 95.7149 34.3526C95.7149 34.145 95.6044 33.9509 95.4238 33.8494L85.8058 28.3295C85.6252 28.2279 85.5146 28.0361 85.5146 27.8307V24.369C85.5146 24.1622 85.623 23.9718 85.8035 23.8689L88.7959 22.1425C88.9742 22.0387 89.1931 22.0387 89.3714 22.1425L92.366 23.8689C92.5443 23.9704 92.6548 24.1622 92.6548 24.3676V27.0892C92.6548 27.2946 92.7654 27.4864 92.9437 27.5902C93.122 27.6917 93.3431 27.6917 93.5214 27.5879L99.2566 24.2568Z" fill="#333333"/>
<path fill-rule="evenodd" clip-rule="evenodd" d="M89.0355 23.7404C89.1032 23.7005 89.1881 23.7005 89.2567 23.7404L91.0914 24.7988C91.16 24.8385 91.202 24.9116 91.202 24.9906V27.1097C91.202 27.1887 91.16 27.2618 91.0914 27.3015L89.2567 28.3599C89.1881 28.3998 89.1032 28.3998 89.0355 28.3599L87.2019 27.3015C87.132 27.2618 87.0891 27.1887 87.0891 27.1097V24.9906C87.0891 24.9116 87.1297 24.8385 87.1997 24.7988L89.0355 23.7404Z" fill="black"/>
<mask id="mask0_10_374" style="mask-type:luminance" maskUnits="userSpaceOnUse" x="26" y="13" width="22" height="26">
<path d="M36.2708 14.1242L26.7633 19.6118C26.4072 19.8171 26.1887 20.1963 26.1887 20.6061V31.589C26.1887 31.9991 26.4072 32.378 26.7633 32.5833L36.2715 38.0752C36.6269 38.2799 37.0651 38.2799 37.4201 38.0752L46.9267 32.5833C47.281 32.378 47.4999 31.9988 47.4999 31.589V20.6061C47.4999 20.1963 47.281 19.8171 46.9245 19.6118L37.4192 14.1242C37.2409 14.0219 37.0423 13.9707 36.8438 13.9707C36.6452 13.9707 36.4466 14.0219 36.2683 14.1242" fill="white"/>
</mask>
<g mask="url(#mask0_10_374)">
<path d="M57.1076 18.6806L30.3171 5.54883L16.5806 33.5712L43.3703 46.7036L57.1076 18.6806Z" fill="black"/>
</g>
<mask id="mask1_10_374" style="mask-type:luminance" maskUnits="userSpaceOnUse" x="26" y="14" width="22" height="25">
<path d="M26.4241 32.2866C26.515 32.4046 26.6288 32.5068 26.7626 32.5835L34.9183 37.2944L36.2768 38.0752C36.4799 38.1926 36.7115 38.2422 36.939 38.2253C37.0148 38.2192 37.0906 38.205 37.1646 38.184L47.1921 19.8235C47.1153 19.74 47.0255 19.67 46.9249 19.6113L40.6995 16.0164L37.4088 14.123C37.3154 14.0689 37.2141 14.0305 37.1109 14.0034L26.4241 32.2866Z" fill="white"/>
</mask>
<g mask="url(#mask1_10_374)">
<path d="M14.8406 22.5632L33.7574 48.1661L58.7752 29.6824L39.8573 4.08008L14.8406 22.5632Z" fill="black"/>
</g>
<mask id="mask2_10_374" style="mask-type:luminance" maskUnits="userSpaceOnUse" x="26" y="13" width="22" height="26">
<path d="M36.7302 13.9774C36.5706 13.9932 36.4147 14.0429 36.2709 14.1246L26.7905 19.5964L37.0134 38.2164C37.1556 38.1961 37.2955 38.1488 37.4219 38.0756L46.9293 32.5837C47.2227 32.4136 47.4236 32.1256 47.4845 31.7993L37.063 13.9962C36.9863 13.981 36.9096 13.9731 36.8306 13.9731C36.799 13.9731 36.7674 13.9747 36.7358 13.9777" fill="white"/>
</mask>
<g mask="url(#mask2_10_374)">
<path d="M26.7893 13.9731V38.2169H47.4795V13.9731H26.7893Z" fill="black"/>
</g>
</g>
<defs>
<clipPath id="clip0_10_374">
<rect width="99.83" height="61.1406" fill="white"/>
</clipPath>
</defs>
</svg>
