<svg width="156" height="40" viewBox="0 0 156 40" fill="none" xmlns="http://www.w3.org/2000/svg">
<g clip-path="url(#clip0_10_338)">
<path d="M51.085 27.7187C50.6095 27.462 50.2437 26.9122 50.2437 26.1796C50.2437 25.1918 51.0118 24.391 52.0398 24.391C52.404 24.391 52.7349 24.4981 52.9893 24.6448C54.859 25.8906 56.7998 26.5134 58.5548 26.5134C60.4584 26.5134 61.5566 25.707 61.5566 24.424V24.3514C61.5566 22.8502 59.5076 22.3384 57.2359 21.6434C54.3818 20.8372 51.1964 19.6669 51.1964 15.9684V15.8943C51.1964 12.2324 54.2351 9.9999 58.0796 9.9999C60.1304 9.9999 62.2895 10.5865 64.1569 11.5736C64.781 11.9041 65.2181 12.4902 65.2181 13.257C65.2181 14.2833 64.4139 15.0539 63.3889 15.0539C63.0208 15.0539 62.8014 14.9804 62.5116 14.8331C60.9347 14.0266 59.3244 13.5132 57.9701 13.5132C56.2481 13.5132 55.2594 14.3206 55.2594 15.4197V15.4909C55.2594 16.9193 57.3462 17.5036 59.617 18.2373C62.4361 19.1166 65.6215 20.3972 65.6215 23.8752V23.9494C65.6215 28.013 62.4711 30.0244 58.4447 30.0244C55.9933 30.0244 53.3205 29.2582 51.085 27.7187Z" fill="black"/>
<path d="M82.784 20.0322V19.9581C82.784 16.2253 80.2572 13.772 77.2565 13.772C74.2544 13.772 71.6184 16.2616 71.6184 19.9581V20.0322C71.6184 23.73 74.2544 26.222 77.2565 26.222C80.2951 26.222 82.784 23.8405 82.784 20.0322ZM67.2971 12.2326C67.2971 10.9901 68.2479 10.0001 69.4953 10.0001C70.7392 10.0001 71.7278 10.9901 71.7278 12.2326V13.5526C73.1559 11.5398 75.169 9.92826 78.3184 9.92826C82.8575 9.92826 87.2881 13.5146 87.2881 19.9581V20.0322C87.2881 26.4402 82.8945 30.0638 78.3184 30.0638C75.0968 30.0638 73.0827 28.4511 71.7278 26.661V33.5035C71.7278 34.7529 70.7392 35.7051 69.4953 35.7051C68.2878 35.7051 67.2971 34.7529 67.2971 33.5035V12.2326Z" fill="black"/>
<path d="M88.9663 12.2346C88.9663 10.9922 89.9155 10.0021 91.1608 10.0021C92.4086 10.0021 93.3958 10.9922 93.3958 12.2346V13.2998C93.6168 11.6407 96.3234 10.0021 98.2648 10.0021C99.6552 10.0021 100.462 10.9167 100.462 12.1974C100.462 13.3681 99.6923 14.1383 98.7035 14.3209C95.5548 14.8703 93.3958 17.6255 93.3958 21.4373V27.8245C93.3958 29.034 92.4086 30.022 91.1608 30.022C89.9534 30.022 88.9663 29.0695 88.9663 27.8245V12.2346Z" fill="black"/>
<path d="M102.137 12.2436C102.137 10.9991 103.092 10.009 104.335 10.009C105.58 10.009 106.568 10.9991 106.568 12.2436V27.8281C106.568 29.0712 105.58 30.022 104.335 30.022C103.126 30.022 102.137 29.0712 102.137 27.8281V12.2436Z" fill="black"/>
<path d="M108.802 12.2524C108.802 11.0079 109.754 10.0202 110.997 10.0202C112.243 10.0202 113.231 11.0079 113.231 12.2524V13.1614C114.478 11.3668 116.269 10.009 119.271 10.009C123.628 10.009 126.156 12.9393 126.156 17.4053V27.8257C126.156 29.0698 125.203 30.0229 123.958 30.0229C122.714 30.0229 121.726 29.0698 121.726 27.8257V18.7605C121.726 15.7598 120.225 14.0377 117.588 14.0377C115.026 14.0377 113.231 15.8316 113.231 18.836V27.8257C113.231 29.0698 112.243 30.0229 110.997 30.0229C109.79 30.0229 108.802 29.0698 108.802 27.8257V12.2524Z" fill="black"/>
<path d="M137.866 26.1807C134.824 26.1807 132.337 23.8001 132.337 19.992V19.9201C132.337 16.1864 134.861 13.733 137.866 13.733C140.868 13.733 143.504 16.2233 143.504 19.9201V19.992C143.504 23.6907 140.868 26.1807 137.866 26.1807ZM145.623 9.96109C144.381 9.96109 143.392 10.9518 143.392 12.1946V13.5122C141.963 11.4995 139.951 9.88887 136.804 9.88887C132.262 9.88887 127.833 13.4753 127.833 19.9201V19.992C127.833 26.3999 132.225 30.0225 136.804 30.0225C140.007 30.0225 142.016 28.429 143.372 26.6476C143.15 30.1289 141.018 31.967 137.28 31.967C135.048 31.967 133.107 31.4159 131.347 30.4256C131.128 30.3184 130.875 30.246 130.545 30.246C129.52 30.246 128.675 31.089 128.675 32.0744C128.675 32.9171 129.152 33.5394 129.923 33.8324C132.262 34.9677 134.677 35.5537 137.388 35.5537C140.868 35.5537 143.578 34.7123 145.336 32.954C146.943 31.3418 147.822 28.9284 147.822 25.6682V12.1946C147.822 10.9518 146.87 9.96109 145.623 9.96109Z" fill="black"/>
<path d="M106.586 4.67417C106.586 5.90607 105.586 6.90771 104.352 6.90771C103.118 6.90771 102.12 5.90607 102.12 4.67417C102.12 3.4389 103.118 2.44164 104.352 2.44164C105.586 2.44164 106.586 3.4389 106.586 4.67417Z" fill="black"/>
<path d="M36.222 28.6988C31.3107 35.2424 20.8195 33.0336 14.0932 33.3513C14.0932 33.3513 12.9025 33.4176 11.7031 33.615C11.7031 33.615 12.1566 33.4215 12.735 33.2222C17.4591 31.5885 19.6917 31.2602 22.5622 29.7857C27.9557 27.0229 33.3234 21.0049 34.4156 14.7532C32.3627 20.7659 26.1189 25.9409 20.4338 28.0423C16.5425 29.4782 9.50553 30.8756 9.50451 30.8762C9.5078 30.8812 9.22407 30.7289 9.2201 30.7256C4.4344 28.3972 4.29631 18.0321 12.9881 14.691C16.7989 13.225 20.4441 14.0302 24.5637 13.0496C28.9576 12.005 34.0465 8.71147 36.1149 4.40561C38.4338 11.2835 41.2193 22.044 36.222 28.6988ZM36.3074 2.27433C35.7227 3.66341 35.0091 4.91513 34.1865 6.03473C30.5659 2.31879 25.5122 0.00357819 19.9263 0.00357819C8.9383 0.00357819 0 8.9429 0 19.9289C0 25.6881 2.45828 30.8822 6.37755 34.523L6.81391 34.9096C6.08523 34.3153 5.97318 33.2452 6.56377 32.5159C7.15798 31.7862 8.2291 31.6732 8.95813 32.2641C9.68912 32.8563 9.80049 33.9291 9.20863 34.6597C8.61896 35.3907 7.54589 35.5011 6.81589 34.9112L7.11284 35.1742C10.5796 38.0932 15.0486 39.8564 19.9263 39.8564C30.4291 39.8564 39.0534 31.683 39.7916 21.3668C40.3383 16.3157 38.8464 9.90193 36.3074 2.27433Z" fill="black"/>
<path d="M153.01 11.3567H152.314V12.2782H153.01C153.236 12.2782 153.482 12.0963 153.482 11.8283C153.482 11.5386 153.236 11.3567 153.01 11.3567ZM153.44 13.638L152.764 12.6098H152.314V13.638H151.951V11.0351H153.01C153.45 11.0351 153.857 11.3465 153.857 11.8283C153.857 12.4064 153.342 12.5995 153.192 12.5995L153.889 13.638H153.44ZM152.818 10.4032C151.746 10.4032 150.889 11.2601 150.889 12.3319C150.889 13.3918 151.746 14.2599 152.818 14.2599C153.878 14.2599 154.746 13.3918 154.746 12.3319C154.746 11.2601 153.878 10.4032 152.818 10.4032ZM152.818 14.603C151.564 14.603 150.547 13.5849 150.547 12.3319C150.547 11.067 151.564 10.0602 152.818 10.0602C154.082 10.0602 155.089 11.067 155.089 12.3319C155.089 13.5849 154.082 14.603 152.818 14.603Z" fill="black"/>
</g>
<defs>
<clipPath id="clip0_10_338">
<rect width="155.09" height="39.8567" fill="white"/>
</clipPath>
</defs>
</svg>
