<svg height="43.47" width="70" xmlns="http://www.w3.org/2000/svg"><path d="m7.553283 751.52546c-4.0589-.4695-8.2851-3.0178-10.4547-6.304-1.8856-2.8561-2.6882-5.6893-2.548-8.9942.1672-3.9394 1.4636-6.922 4.2132-9.6929 2.1802-2.1972 4.0502-3.2888 6.9808-4.0751 1.1634-.3122 1.6003-.3568 3.5254-.3601 1.8095 0 2.3913.048 3.2961.2873.6042.16 1.194.3285 1.3104.3745.1627.064.3176-.18.6682-1.0532 2.6928-6.7075 8.3745-11.4906 15.6456-13.171 1.5312-.3539 5.4667-.5005 7.2088-.2686 9.5698 1.2741 17.1117 8.691 18.6548 18.3456.3515 2.1992.1411 6.3215-.4223 8.2745l-.1288.4463h.8488c3.1291.01 6.0347 1.8052 7.3487 4.5435.6949 1.4481.9046 2.5146.8147 4.144-.1885 3.4178-2.3854 6.1602-5.8726 7.3309-.7225.2425-1.8299.2543-25.4072.2713-13.5586.01-25.1154-.036-25.6819-.1013zm23.5183-12.9019c.283-.079.7311-.3658.9957-.6383l.4812-.4954v.5704.5704h1.03 1.03v-3.5021-3.502h-1.03-1.03v2.2457c0 2.1108-.019 2.2738-.3136 2.7124-.2702.4021-.4011.4724-.9459.5079-.548.036-.6712-.01-.9225-.3275-.2699-.3432-.2901-.5346-.2901-2.7537v-2.3848h-1.1164-1.1165l.068 2.6437c.041 1.5718.1349 2.8108.2329 3.0557.4689 1.1725 1.5892 1.6692 2.927 1.2976zm16.0689-.1464c.5098-.1656.515-.1746.515-.8996 0-.4027-.023-.7323-.052-.7323s-.2738.093-.545.206c-.6487.2711-2.0472.2662-2.5795-.01-.3382-.1749-.8064-.8847-.8064-1.2225 0-.04 1.0197-.073 2.2661-.073h2.266v-.9957c-.01-2.0313-1.1697-3.2602-3.087-3.2602-2.2757 0-3.8103 2.0384-3.3945 4.5084.2364 1.4044 1.0265 2.3026 2.308 2.6241.6554.1644 2.4098.082 3.1122-.146zm-3.3816-4.0757c-.1381-.2233.4295-1.2048.7921-1.37.4574-.2084.6633-.2115 1.0915-.016.3744.1706.6396.651.6396 1.1587 0 .3324-.016.3368-1.2279.3368-.6754 0-1.2583-.049-1.2953-.1091zm-30.4507 3.0924.3462-1.0681 1.7823.038 1.7823.038.3452 1.0644.3451 1.0643h1.1487c1.1285 0 1.147-.01 1.0517-.309-.053-.1699-.8217-2.3484-1.7075-4.8411l-1.6105-4.5321-1.3026-.039-1.3026-.039-1.7375 4.7772c-.9556 2.6274-1.7373 4.826-1.7372 4.8857.0001.06.5065.091 1.1252.069l1.125-.04.3462-1.0681zm.8372-2.8114c0-.056.2418-.8445.5373-1.751.2955-.9066.5808-1.8337.634-2.0603.087-.3685.1304-.2887.4155.7554.1753.642.4462 1.5324.602 1.9785.426 1.2199.458 1.1802-.9528 1.1802-.6798 0-1.236-.046-1.236-.1028zm12.635 3.1929v-.7554h-1.5713c-.8642 0-1.5984-.046-1.6316-.103-.033-.057.6739-1.0573 1.5713-2.2236 1.4271-1.8549 1.6316-2.1862 1.6316-2.6437v-.5231h-2.9528-2.9527v.7553.7554h1.5794c.8686 0 1.578.046 1.5764.103 0 .057-.7739 1.0918-1.7162 2.3004-1.3893 1.7818-1.7134 2.2817-1.7138 2.6437v.4463h3.0901 3.09v-.7553zm11.8326-1.2704c.04-1.7413.086-2.0932.3285-2.5064.3861-.6589.8971-.8894 1.5851-.7148l.5367.1363v-.9308c0-1.048-.1506-1.1912-.999-.9503-.5964.1695-.6934.2449-1.1123.8651l-.3607.5342v-.7059-.7058h-1.03-1.0301v3.502 3.5021h1.0175 1.0174l.047-2.0257z" fill="#00bcf2" transform="translate(5.465 -708.156)"/></svg>