<svg width="568" height="126" viewBox="0 0 568 126" fill="none" xmlns="http://www.w3.org/2000/svg">
<g id="logo_1">
<g id="logo_symbol">
<mask id="mask0_548_684" style="mask-type:luminance" maskUnits="userSpaceOnUse" x="0" y="0" width="125" height="126">
<path id="Clip 2" fill-rule="evenodd" clip-rule="evenodd" d="M0 0.875H124.96V125.125H0V0.875Z" fill="white"/>
</mask>
<g mask="url(#mask0_548_684)">
<path id="Fill 1" fill-rule="evenodd" clip-rule="evenodd" d="M94.3825 63.745C94.3825 57.77 94.2944 51.7922 94.429 45.82C94.4783 43.6634 94.0134 42.757 91.6273 42.908C88.7708 43.0888 84.938 43.9297 83.261 42.4893C81.3002 40.8053 82.5644 36.8854 82.6622 33.9604C82.7413 31.5651 81.8407 31.1636 79.7009 31.1933C71.6128 31.3037 63.5219 31.2236 55.4317 31.243C50.9308 31.254 45.8908 30.0757 42.0774 31.7065C38.1302 33.3954 35.4214 37.8844 32.0688 41.0426C30.8663 42.1754 30.5083 43.3654 30.5167 44.9625C30.577 56.6828 30.5999 68.4044 30.5035 80.1247C30.4854 82.2764 30.9184 83.187 33.3045 83.036C36.161 82.8552 39.9945 82.0143 41.6708 83.4547C43.6316 85.1387 42.2869 89.0503 42.289 91.9857C42.2904 93.9422 42.5784 94.7893 44.884 94.7652C56.902 94.6383 68.9221 94.699 80.9415 94.7169C82.1196 94.719 83.0605 94.5417 84.0381 93.6697C94.3638 84.4626 94.3825 84.4833 94.3825 70.6396C94.3825 68.3416 94.3825 66.043 94.3825 63.745M124.911 63.17C124.911 73.1684 124.774 83.1688 124.944 93.1644C125.196 107.979 113.078 122.292 98.728 124.483C96.8117 124.776 94.93 125.048 93.0136 125.049C72.7868 125.067 52.5572 124.872 32.3331 125.123C17.5002 125.308 3.8274 114.091 0.68084 99.9328C0.157685 97.5803 0.0168353 95.2561 0.0168353 92.8836C0.0223861 72.6579 -0.0372842 52.4308 0.0397321 32.205C0.0945454 17.7632 11.4825 3.87741 26.5465 1.47941C29.1713 1.06203 31.7385 0.897841 34.3466 0.894392C53.4175 0.873006 72.4891 0.90612 91.56 0.875075C106.218 0.85162 117.82 8.77207 123.112 22.3074C124.264 25.2539 125 28.4569 124.959 31.7966C124.83 42.253 124.911 52.7122 124.911 63.17" fill="#020203"/>
<path id="Fill 15" fill-rule="evenodd" clip-rule="evenodd" d="M62.1177 82.2878C67.8883 82.2878 73.6611 82.2071 79.429 82.3326C81.3995 82.3747 81.9532 81.8035 81.9372 79.8429C81.847 68.5972 81.847 57.3502 81.9372 46.1046C81.9525 44.1495 81.4057 43.5955 79.4338 43.6114C68.1235 43.7017 56.8119 43.7011 45.5016 43.6121C43.5359 43.5962 42.9788 44.1398 42.9947 46.1004C43.0849 57.3461 43.0849 68.5931 42.9947 79.8387C42.9795 81.7932 43.5221 82.3782 45.4988 82.3326C51.0357 82.2043 56.5774 82.2878 62.1177 82.2878M94.3827 63.7446V70.6392C94.3827 84.483 94.364 84.4623 84.0382 93.6693C83.0606 94.5413 82.1198 94.7186 80.9416 94.7172C68.9223 94.6986 56.9022 94.6379 44.8842 94.7648C42.5785 94.789 42.2906 93.9418 42.2892 91.9853C42.2864 89.0499 43.6318 85.1383 41.671 83.4544C39.994 82.0139 36.1612 82.8549 33.3047 83.0356C30.9179 83.1867 30.4856 82.276 30.5036 80.1243C30.6001 68.4041 30.5772 56.6824 30.5168 44.9621C30.5085 43.3651 30.8658 42.175 32.0689 41.0423C35.4216 37.884 38.1303 33.395 42.0776 31.7062C45.8909 30.0753 50.931 31.2536 55.4319 31.2426C63.5214 31.2233 71.6123 31.3033 79.7011 31.1929C81.8409 31.1633 82.7415 31.5648 82.6617 33.96C82.5645 36.8851 81.3004 40.8049 83.2611 42.4889C84.9375 43.9294 88.7709 43.0884 91.6275 42.9077C94.0136 42.7566 94.4785 43.6631 94.4292 45.8196C94.2946 51.7919 94.3827 57.7696 94.3827 63.7446" fill="#BCFD2C"/>
<path id="Fill 17" fill-rule="evenodd" clip-rule="evenodd" d="M62.1178 82.2876C56.5774 82.2876 51.0357 82.2041 45.4989 82.3324C43.5222 82.378 42.9796 81.793 42.9948 79.8385C43.085 68.5929 43.085 57.3459 42.9948 46.1002C42.9789 44.1396 43.536 43.596 45.5017 43.6119C56.812 43.7009 68.1236 43.7015 79.4339 43.6112C81.4058 43.5953 81.9526 44.1493 81.9373 46.1044C81.8471 57.35 81.8471 68.597 81.9373 79.8427C81.9533 81.8033 81.3996 82.3745 79.4291 82.3324C73.6612 82.2069 67.8884 82.2876 62.1178 82.2876" fill="#020203"/>
</g>
</g>
<g id="Group 6">
<mask id="mask1_548_684" style="mask-type:luminance" maskUnits="userSpaceOnUse" x="152" y="44" width="121" height="59">
<path id="Clip 5" fill-rule="evenodd" clip-rule="evenodd" d="M152.318 44.9709H272.744V102.655H152.318V44.9709Z" fill="white"/>
</mask>
<g mask="url(#mask1_548_684)">
<path id="Fill 4" fill-rule="evenodd" clip-rule="evenodd" d="M206.785 56.636C210.511 52.8472 213.666 49.7048 216.735 46.4824C217.756 45.4103 218.826 44.9937 220.327 45.0006C233.041 45.0599 245.756 45.0764 258.47 44.9902C260.426 44.9764 260.97 45.5021 260.967 47.451C260.961 50.5002 259.569 54.5753 261.567 56.3124C263.287 57.8074 267.29 56.8464 270.271 56.7153C272.248 56.6277 272.756 57.2486 272.744 59.1864C272.66 72.7473 272.66 86.3089 272.744 99.8697C272.756 101.808 272.249 102.455 270.271 102.334C267.059 102.136 262.859 103.396 260.877 101.813C258.798 100.153 260.267 95.8036 260.242 92.6371C260.159 81.835 260.145 71.0309 260.264 60.2288C260.288 58.004 259.734 57.3728 257.444 57.3955C245.425 57.5163 233.402 57.5094 221.382 57.4004C219.163 57.3804 218.502 57.8985 218.522 60.193C218.641 73.2937 218.529 86.3958 218.63 99.4965C218.647 101.681 218.177 102.59 215.832 102.328C212.661 101.975 208.396 103.662 206.579 101.641C205.011 99.8987 206.105 95.7505 206.099 92.666C206.078 81.8626 206.032 71.0592 206.141 60.2571C206.162 58.0861 205.698 57.3659 203.353 57.3921C191.565 57.5232 179.773 57.5425 167.985 57.3824C165.364 57.3472 165.087 58.2848 165.104 60.5096C165.206 73.4951 165.108 86.4827 165.201 99.4689C165.216 101.601 164.836 102.602 162.434 102.332C159.262 101.975 154.999 103.652 153.172 101.656C151.6 99.9387 152.68 95.776 152.674 92.6936C152.651 81.6612 152.717 70.6273 152.619 59.5955C152.601 57.4769 152.966 56.5932 155.377 56.6863C158.323 56.7995 162.264 58.0385 163.973 56.1558C165.43 54.5519 164.542 50.7038 164.412 47.8622C164.313 45.7208 164.791 44.9454 167.178 44.9716C179.428 45.1068 191.681 45.0813 203.933 44.9895C206.058 44.9737 207.057 45.3186 206.839 47.7297C206.601 50.3464 206.785 53.001 206.785 56.636" fill="#020203"/>
</g>
</g>
<path id="Fill 7" fill-rule="evenodd" clip-rule="evenodd" d="M534.459 89.8763C540.585 89.8763 546.713 89.8059 552.839 89.9191C554.669 89.9529 555.205 89.4244 555.133 87.6225C554.994 84.18 555.017 80.7258 555.126 77.2806C555.175 75.7477 554.672 75.3517 553.17 75.3579C540.8 75.4131 528.431 75.4145 516.062 75.3565C514.532 75.3489 514.078 75.7904 514.123 77.2964C514.227 80.7417 514.26 84.1966 514.113 87.6384C514.035 89.4713 514.626 89.9494 516.426 89.917C522.435 89.8094 528.447 89.8763 534.459 89.8763M534.917 102.294C528.675 102.294 522.432 102.231 516.192 102.332C514.277 102.362 513.311 102.181 513.379 99.8251C513.467 96.791 514.815 92.7042 512.771 90.9809C511.009 89.4963 507.028 90.4607 504.044 90.6159C501.983 90.7229 501.369 89.953 501.662 88.0903C501.697 87.8661 501.667 87.6316 501.666 87.4018C501.613 73.4201 501.646 73.4553 511.97 64.031C513.197 62.9106 514.393 62.9768 515.733 62.9761C527.87 62.9679 540.008 62.8975 552.143 63.0334C554.577 63.061 555.148 62.4429 555.202 60.04C555.261 57.442 554.088 57.4123 552.14 57.422C540.234 57.4827 528.328 57.3785 516.424 57.5137C514.004 57.5413 513.154 56.9749 513.421 54.5217C513.753 51.4718 512.169 47.4167 514.004 45.5823C515.843 43.7445 519.91 45.076 522.996 45.058C533.168 44.9966 543.34 45.0794 553.511 44.9946C555.376 44.9787 556.711 45.4671 558.002 46.8324C561.083 50.092 565.565 52.6867 567.164 56.5086C568.767 60.336 567.57 65.3265 567.578 69.8073C567.59 76.1279 567.597 82.4492 567.575 88.7698C567.563 91.9515 557.187 102.276 553.989 102.287C547.631 102.311 541.274 102.294 534.917 102.294" fill="#020203"/>
<path id="Fill 9" fill-rule="evenodd" clip-rule="evenodd" d="M316.374 89.8769C322.501 89.8769 328.63 89.8052 334.755 89.9197C336.659 89.9555 337.3 89.5058 337.275 87.4961C337.164 78.3015 337.175 69.1041 337.269 59.9095C337.289 58.0164 336.849 57.3893 334.831 57.4052C322.577 57.5011 310.322 57.4928 298.068 57.4114C296.167 57.3983 295.524 57.824 295.547 59.8336C295.658 69.0282 295.648 78.2256 295.553 87.4203C295.535 89.3133 295.97 89.97 297.992 89.9259C304.117 89.7907 310.246 89.8769 316.374 89.8769M316.317 45.035C322.443 45.035 328.577 45.213 334.692 44.9563C337.569 44.8356 338.223 45.8435 337.957 48.3912C337.767 50.2104 338.104 52.0883 337.876 53.8985C337.556 56.4483 338.628 57.0381 340.953 56.8029C342.898 56.6069 344.901 56.9491 346.838 56.7166C349.41 56.4083 349.804 57.4845 349.771 59.7783C349.638 69.0847 349.66 78.3952 349.762 87.703C349.783 89.5905 349.196 90.8675 347.838 92.1348C344.312 95.4255 341.467 100.139 337.327 101.879C333.301 103.572 328.006 102.288 323.267 102.292C314.83 102.3 306.391 102.215 297.955 102.348C295.681 102.384 294.707 102.039 294.82 99.4557C294.948 96.5438 296.203 92.608 294.209 90.953C292.494 89.5305 288.672 90.4053 285.811 90.626C283.373 90.8137 283.04 89.8258 283.063 87.7237C283.165 78.3014 283.169 68.8764 283.053 59.454C283.031 57.6555 283.644 56.4897 284.862 55.3176C288.345 51.9655 291.193 47.2102 295.333 45.4944C299.476 43.7773 304.879 45.0605 309.729 45.0371C311.925 45.026 314.121 45.035 316.317 45.035" fill="#020203"/>
<path id="Fill 11" fill-rule="evenodd" clip-rule="evenodd" d="M392.784 89.8766C398.911 89.8766 405.039 89.8414 411.166 89.9008C412.757 89.9159 413.632 89.7987 413.604 87.7525C413.478 78.3281 413.504 68.901 413.589 59.4759C413.605 57.743 413.004 57.4132 411.412 57.4208C399.158 57.4794 386.903 57.4877 374.648 57.4132C372.908 57.4022 372.568 57.9913 372.579 59.5759C372.647 68.8865 372.675 78.1984 372.563 87.5076C372.538 89.5372 373.21 89.9546 375.097 89.9187C380.99 89.8049 386.888 89.8766 392.784 89.8766M392.802 45.0348C399.038 45.0348 405.274 45.0955 411.507 44.9982C413.408 44.9686 414.397 45.1286 414.325 47.4942C414.232 50.5269 412.899 54.6082 414.923 56.3349C416.667 57.8216 420.651 56.8572 423.632 56.715C425.639 56.6185 426.1 57.298 426.081 59.2048C425.989 69.0776 426.007 78.9518 426.072 88.8246C426.081 90.3126 425.764 91.4792 424.572 92.3774C424.481 92.445 424.416 92.545 424.334 92.6251C421.052 95.8316 418.282 100.246 414.341 101.899C410.512 103.504 405.483 102.288 400.98 102.292C392.204 102.3 383.427 102.203 374.654 102.355C372.31 102.396 371.818 101.663 371.854 99.4921C371.902 96.567 373.201 92.6465 371.249 90.9825C369.57 89.5524 365.736 90.432 362.877 90.6224C360.551 90.7769 360.044 89.9787 360.071 87.7801C360.192 78.0225 360.11 68.2628 360.131 58.5039C360.138 55.3277 370.544 45.052 373.75 45.041C380.101 45.0196 386.451 45.0348 392.802 45.0348" fill="#020203"/>
<path id="Fill 13" fill-rule="evenodd" clip-rule="evenodd" d="M436.446 57.1127C436.446 46.8895 436.51 36.6655 436.395 26.4436C436.37 24.2567 436.852 23.3544 439.194 23.6138C442.364 23.9656 446.625 22.283 448.444 24.2988C450.011 26.0359 448.924 30.1848 448.927 33.2672C448.943 50.8417 449.052 68.4184 448.835 85.9901C448.792 89.4637 449.826 90.0121 453.01 89.9569C464.79 89.7541 476.577 89.959 488.359 89.8107C490.873 89.7789 491.515 90.5164 491.306 92.8661C491.093 95.26 491.125 97.6966 491.301 100.096C491.442 102.008 490.673 102.337 488.951 102.328C476.128 102.266 463.304 102.273 450.481 102.324C449.101 102.33 448.02 102.061 447.22 100.924C447.156 100.833 447.036 100.784 446.956 100.703C443.471 97.1999 438.675 94.2486 436.879 90.0342C435.134 85.937 436.455 80.545 436.448 75.7214C436.438 69.5187 436.446 63.3154 436.446 57.1127" fill="#020203"/>
</g>
</svg>
